<?xml version="1.0" encoding="UTF-8" standalone="no"?>
<!DOCTYPE svg PUBLIC "-//W3C//DTD SVG 20010904//EN"
"http://www.w3.org/TR/2001/REC-SVG-20010904/DTD/svg10.dtd">
<!-- Created with Sodipodi ("http://www.sodipodi.com/") -->
<svg
   xmlns="http://www.w3.org/2000/svg"
   xmlns:xlink="http://www.w3.org/1999/xlink"
   xmlns:sodipodi="http://sodipodi.sourceforge.net/DTD/sodipodi-0.dtd"
   xml:space="preserve"
   version="1.0"
   x="0"
   y="0"
   width="360"
   height="270"
   id="svg1377"
   sodipodi:version="0.34"
   sodipodi:docname="C:\Documents and Settings\All Users\Documents\WORK\modwest\site\ndz\docroot\emagnettest\offaxis\offaxisloop.svg"><sodipodi:namedview
   id="base"><sodipodi:guide
   orientation="horizontal"
   position="102.7686"
   id="guide762" /><sodipodi:guide
   orientation="vertical"
   position="194.436752"
   id="guide763" /></sodipodi:namedview><defs
   id="defs1379" /><path
   style="font-size:12;fill:none;fill-rule:evenodd;stroke:#000000;stroke-width:2.499999;stroke-dasharray:2.5 5 ;stroke-dashoffset:0;stroke-opacity:0.5043;"
   d="M 114.2719 144.2978 L 244.1484 144.2978 "
   id="path761"
   sodipodi:nodetypes="cc" /><path
   d="M 244.0514 142.0598 L 243.5884 76.67619 "
   style="font-size:12;fill:none;fill-rule:evenodd;stroke:#000000;stroke-width:2.5;stroke-dasharray:2.5 5 ;stroke-dashoffset:0;stroke-opacity:0.5043;"
   id="path1413"
   sodipodi:nodetypes="cc" /><path
   d="M 115.0688 144.2636 L 115.0688 44.26378 "
   style="font-size:12;fill:none;fill-rule:evenodd;stroke:#000000;stroke-width:2.5;"
   id="path1416"
   sodipodi:nodetypes="cc" /><path
   d="M 321.6252 56.70117 L 321.6252 59.52867 C 322.6659 57.64367 323.7338 56.70117 324.829 56.70117 C 325.3269 56.70117 325.7387 56.85437 326.0645 57.16097 C 326.3903 57.46747 326.5532 57.82197 326.5532 58.22447 C 326.5532 58.58147 326.436 58.88357 326.2015 59.13057 C 325.967 59.37757 325.6874 59.50117 325.3628 59.50117 C 325.0472 59.50117 324.6922 59.34247 324.2977 59.02517 C 323.9032 58.70777 323.6107 58.54917 323.4203 58.54917 C 323.2572 58.54917 323.0805 58.64067 322.89 58.82387 C 322.482 59.19927 322.0604 59.81717 321.6252 60.67757 L 321.6252 66.66917 C 321.6252 67.36677 321.7117 67.89457 321.8847 68.25247 C 322.0028 68.50037 322.2121 68.70447 322.5125 68.86477 C 322.8129 69.02497 323.2451 69.10517 323.8092 69.10517 L 323.8092 69.60917 L 317.3972 69.60917 L 317.3972 69.10517 C 318.0325 69.10517 318.5044 69.00497 318.813 68.80457 C 319.0396 68.65877 319.1983 68.42627 319.289 68.10717 C 319.3345 67.95227 319.3572 67.51027 319.3572 66.78117 L 319.3572 61.93717 C 319.3572 60.48197 319.3277 59.61577 319.2686 59.33837 C 319.2096 59.06097 319.1005 58.85857 318.9414 58.73117 C 318.7823 58.60367 318.5846 58.53997 318.3483 58.53997 C 318.0663 58.53997 317.7481 58.60837 317.3937 58.74517 L 317.2572 58.24117 L 321.0499 56.70117 L 321.6252 56.70117 z "
   style="font-size:28;font-weight:normal;font-family:Times New Roman;fill:#0000ff;fill-opacity:1;"
   id="path1479" /><path
   d="M 258.6822 40.9297 C 259.9667 41.2039 260.9277 41.6424 261.5653 42.2453 C 262.4488 43.0859 262.8905 44.1137 262.8905 45.3288 C 262.8905 46.2516 262.5992 47.1356 262.0166 47.9807 C 261.434 48.8258 260.6351 49.4425 259.62 49.8309 C 258.6048 50.2192 257.0548 50.4134 254.97 50.4134 L 246.2305 50.4134 L 246.2305 49.9094 L 246.9226 49.9094 C 247.6918 49.9094 248.2437 49.6637 248.5786 49.1722 C 248.7865 48.8534 248.8905 48.1751 248.8905 47.1374 L 248.8905 35.1254 C 248.8905 33.9783 248.7593 33.2545 248.4968 32.9541 C 248.1441 32.5536 247.6194 32.3534 246.9226 32.3534 L 246.2305 32.3534 L 246.2305 31.8494 L 254.2289 31.8494 C 255.721 31.8494 256.9176 31.9588 257.8186 32.1775 C 259.1836 32.5056 260.2255 33.0869 260.9443 33.9212 C 261.6631 34.7555 262.0225 35.715 262.0225 36.7997 C 262.0225 37.7295 261.7408 38.5614 261.1773 39.2954 C 260.6138 40.0294 259.7821 40.5742 258.6822 40.9297 z M 251.5225 40.1706 C 251.8597 40.2342 252.2445 40.2819 252.6771 40.3137 C 253.1096 40.3455 253.5856 40.3614 254.1051 40.3614 C 255.4348 40.3614 256.4344 40.2183 257.1039 39.9322 C 257.7734 39.6461 258.2846 39.2079 258.6373 38.6175 C 258.9901 38.0272 259.1665 37.3825 259.1665 36.6833 C 259.1665 35.6024 258.7251 34.6805 257.8424 33.9177 C 256.9597 33.1548 255.672 32.7734 253.9795 32.7734 C 253.0695 32.7734 252.2505 32.8733 251.5225 33.0731 L 251.5225 40.1706 z M 251.5225 49.0641 C 252.5836 49.3103 253.6308 49.4334 254.6642 49.4334 C 256.32 49.4334 257.5823 49.062 258.4512 48.3193 C 259.3201 47.5766 259.7545 46.6585 259.7545 45.565 C 259.7545 44.8452 259.553 44.1526 259.1501 43.4873 C 258.7472 42.822 258.1039 42.2981 257.2203 41.9154 C 256.3367 41.5327 255.2436 41.3414 253.941 41.3414 C 253.3763 41.3414 252.8936 41.3505 252.4927 41.3687 C 252.0918 41.387 251.7684 41.4188 251.5225 41.4643 L 251.5225 49.0641 z "
   style="font-size:28;font-weight:normal;fill:#0000ff;font-family:Times New Roman;"
   id="path1481" /><path
   d="M 114.0122 144.5381 L 239.6932 77.24953 "
   style="font-size:12;fill:none;fill-rule:evenodd;stroke:#000000;stroke-width:2.499999;"
   id="path1420"
   sodipodi:nodetypes="cc" /><path
   d="M 227.37 74.39882 L 239.4844 77.11571 L 236.9856 89.09204 "
   style="font-size:12;fill:none;fill-rule:evenodd;stroke:#000000;stroke-width:2.499998;"
   id="path1435" /><path
   d="M 132.03 208.1953 L 142.9567 202.3008 L 148.9253 212.9804 "
   style="font-size:12;fill:none;fill-rule:evenodd;stroke:#ff0000;stroke-width:2.499998;"
   id="path1436" /><path
   d="M 283.8812 92.8927 L 289.7332 92.8927 L 289.7332 93.3967 C 289.3607 93.3967 289.0996 93.4616 288.9498 93.5914 C 288.8001 93.7212 288.7252 93.8927 288.7252 94.1059 C 288.7252 94.3284 288.8898 94.6714 289.2191 95.1349 C 289.3203 95.2792 289.4723 95.505 289.675 95.8121 L 290.5833 97.2454 L 291.6144 95.8143 C 292.2786 94.9224 292.6128 94.3533 292.6172 94.1072 C 292.6172 93.9083 292.5395 93.7401 292.3842 93.6027 C 292.2289 93.4654 291.9777 93.3967 291.6306 93.3967 L 291.6306 92.8927 L 295.8372 92.8927 L 295.8372 93.3967 C 295.3866 93.4241 294.9959 93.5469 294.6651 93.7651 C 294.2145 94.0739 293.6049 94.7467 292.8364 95.7832 L 291.1218 98.0587 L 294.2412 102.5877 C 295.0068 103.6943 295.5537 104.3596 295.8818 104.5836 C 296.2099 104.8076 296.6337 104.9333 297.1532 104.9607 L 297.1532 105.4367 L 291.2325 105.4367 L 291.2325 104.9607 C 291.6426 104.9607 291.9615 104.8688 292.1893 104.6851 C 292.3626 104.5564 292.4492 104.3865 292.4492 104.1754 C 292.4492 103.9642 292.1556 103.4316 291.5685 102.5776 L 289.7336 99.9006 L 287.722 102.5706 C 287.1215 103.4089 286.8212 103.9062 286.8212 104.0625 C 286.8212 104.2836 286.9239 104.484 287.1292 104.6636 C 287.3345 104.8433 287.6425 104.9423 288.0532 104.9607 L 288.0532 105.4367 L 283.9652 105.4367 L 283.9652 104.9607 C 284.2924 104.9149 284.5787 104.8006 284.824 104.6177 C 285.1693 104.3526 285.7511 103.6759 286.5692 102.5877 L 289.1798 99.0829 L 286.8212 95.6327 C 286.1498 94.6452 285.6303 94.0256 285.2628 93.774 C 284.8953 93.5225 284.4348 93.3967 283.8812 93.3967 L 283.8812 92.8927 z "
   style="font-size:28;font-weight:normal;font-family:Times New Roman;fill:#0000ff;fill-opacity:1;"
   id="path669" /><path
   d="M 180.6604 151.175 L 186.5124 151.175 L 186.5124 151.679 C 186.14 151.679 185.8788 151.7439 185.7291 151.8737 C 185.5793 152.0034 185.5044 152.1749 185.5044 152.3882 C 185.5044 152.6107 185.6691 152.9537 185.9984 153.4172 C 186.0996 153.5615 186.2515 153.7873 186.4542 154.0944 L 187.3625 155.5277 L 188.3937 154.0966 C 189.0578 153.2047 189.392 152.6356 189.3964 152.3895 C 189.3964 152.1905 189.3188 152.0224 189.1634 151.885 C 189.0081 151.7477 188.7569 151.679 188.4099 151.679 L 188.4099 151.175 L 192.6164 151.175 L 192.6164 151.679 C 192.1658 151.7064 191.7751 151.8292 191.4444 152.0473 C 190.9937 152.3562 190.3841 153.0289 189.6156 154.0655 L 187.901 156.341 L 191.0204 160.87 C 191.786 161.9766 192.3329 162.6418 192.661 162.8658 C 192.9892 163.0898 193.413 163.2156 193.9324 163.243 L 193.9324 163.719 L 188.0117 163.719 L 188.0117 163.243 C 188.4218 163.243 188.7408 163.1511 188.9685 162.9673 C 189.1418 162.8387 189.2284 162.6688 189.2284 162.4577 C 189.2284 162.2465 188.9349 161.7139 188.3477 160.8599 L 186.5129 158.1828 L 184.5012 160.8529 C 183.9007 161.6912 183.6004 162.1884 183.6004 162.3448 C 183.6004 162.5659 183.7031 162.7662 183.9084 162.9459 C 184.1138 163.1256 184.4218 163.2246 184.8324 163.243 L 184.8324 163.719 L 180.7444 163.719 L 180.7444 163.243 C 181.0717 163.1972 181.3579 163.0828 181.6032 162.9 C 181.9486 162.6348 182.5303 161.9582 183.3484 160.87 L 185.959 157.3652 L 183.6004 153.915 C 182.929 152.9274 182.4095 152.3079 182.042 152.0563 C 181.6745 151.8047 181.214 151.679 180.6604 151.679 L 180.6604 151.175 z "
   style="font-size:28;font-weight:normal;font-family:Times New Roman;"
   id="path668" /><path
   d="M 246.817 29.23166 L 260.2432 29.23163 "
   style="font-size:12;fill:none;fill-rule:evenodd;stroke:#0000ff;stroke-width:2.499999;stroke-opacity:1;"
   id="path762"
   sodipodi:nodetypes="cc" /><path
   d="M 228.4778 109.0702 L 228.4778 111.8977 C 229.5185 110.0127 230.5864 109.0702 231.6816 109.0702 C 232.1795 109.0702 232.5913 109.2234 232.9171 109.53 C 233.2429 109.8365 233.4058 110.191 233.4058 110.5935 C 233.4058 110.9505 233.2885 111.2526 233.054 111.4996 C 232.8195 111.7466 232.54 111.8702 232.2153 111.8702 C 231.8998 111.8702 231.5447 111.7115 231.1503 111.3942 C 230.7558 111.0768 230.4633 110.9182 230.2728 110.9182 C 230.1098 110.9182 229.9331 111.0097 229.7426 111.1929 C 229.3346 111.5683 228.913 112.1862 228.4778 113.0466 L 228.4778 119.0382 C 228.4778 119.7358 228.5643 120.2636 228.7372 120.6215 C 228.8553 120.8694 229.0646 121.0735 229.365 121.2338 C 229.6655 121.394 230.0977 121.4742 230.6618 121.4742 L 230.6618 121.9782 L 224.2498 121.9782 L 224.2498 121.4742 C 224.885 121.4742 225.357 121.374 225.6655 121.1736 C 225.8922 121.0278 226.0508 120.7953 226.1415 120.4762 C 226.187 120.3213 226.2098 119.8793 226.2098 119.1502 L 226.2098 114.3062 C 226.2098 112.851 226.1803 111.9848 226.1212 111.7074 C 226.0621 111.43 225.953 111.2276 225.7939 111.1002 C 225.6348 110.9727 225.4372 110.909 225.2009 110.909 C 224.9189 110.909 224.6007 110.9774 224.2463 111.1142 L 224.1098 110.6102 L 227.9025 109.0702 L 228.4778 109.0702 z "
   style="font-size:28;font-weight:normal;font-family:Times New Roman;"
   id="path764" /><path
   sodipodi:type="arc"
   style="fill-rule:evenodd;stroke:#ff0000;fill:none;fill-opacity:1;stroke-opacity:1;stroke-width:2.5;stroke-linejoin:miter;stroke-linecap:butt;stroke-dasharray:none;"
   id="path760"
   d="M 150.8407 135.4967 A 35.80787 100.0382 0 1 0 79.22491 135.4967 A 35.80787 100.0382 0 1 0  150.8407 135.4967 z"
   sodipodi:cx="115.032791"
   sodipodi:cy="135.496674"
   sodipodi:rx="35.8078728"
   sodipodi:ry="100.038246"
   transform="translate(-1.342783,8.504366)" /><g
   id="g767"
   transform="matrix(0.742685,-0.714453,0.720365,0.73659,-65.94479,120.6276)"><ellipse
   cx="258.084595"
   cy="185.334625"
   rx="3.23670197"
   ry="3.23670959"
   transform="translate(-11.9247,-8.858341)"
   style="font-size:12;fill:#0000ff;fill-rule:evenodd;"
   id="path1444" /><g
   id="g764"><path
   d="M 244.9674 176.3059 L 313.79 175.9652 "
   style="font-size:12;fill:none;fill-rule:evenodd;stroke:#0000ff;stroke-width:2.5;"
   id="path1442" /><path
   d="M 305.494 167.0323 L 314.273 175.8112 L 305.7522 184.5902 "
   style="font-size:12;fill:none;fill-rule:evenodd;stroke:#0000ff;stroke-width:2.499999;"
   id="path1443" /></g></g><path
   d="M 245.3941 74.92 L 293.9509 74.4553 L 294.167 25.20237 "
   style="font-size:12;fill:none;fill-rule:evenodd;stroke:#0000ff;stroke-width:2.5;stroke-dasharray:2.5 5;stroke-dashoffset:0;stroke-opacity:0.5043;"
   id="path772"
   sodipodi:nodetypes="ccc" /><path
   style="font-size:28;font-weight:normal;stroke-width:1;font-family:Times New Roman;fill:#ff0000;fill-opacity:1;"
   d="M 158.95 205.7801 C 159.3324 205.7801 159.6578 205.9144 159.9263 206.1828 C 160.1948 206.4513 160.329 206.7767 160.329 207.1591 C 160.329 207.5415 160.1948 207.8693 159.9263 208.1424 C 159.6578 208.4155 159.3324 208.5521 158.95 208.5521 C 158.5677 208.5521 158.2399 208.4155 157.9668 208.1424 C 157.6936 207.8693 157.557 207.5415 157.557 207.1591 C 157.557 206.7767 157.6913 206.4513 157.9598 206.1828 C 158.2282 205.9144 158.5583 205.7801 158.95 205.7801 z M 160.077 212.3321 L 160.077 222.4121 C 160.077 223.1915 160.1341 223.7102 160.2483 223.9683 C 160.3625 224.2264 160.5315 224.4189 160.7552 224.5458 C 160.9789 224.6727 161.3875 224.7361 161.981 224.7361 L 161.981 225.2401 L 155.905 225.2401 L 155.905 224.7361 C 156.5126 224.7361 156.9206 224.6772 157.1292 224.5594 C 157.3377 224.4415 157.5032 224.2467 157.6255 223.9749 C 157.7479 223.703 157.809 223.1821 157.809 222.4121 L 157.809 217.5681 C 157.809 216.2189 157.7681 215.345 157.6861 214.9466 C 157.6225 214.6567 157.5226 214.4549 157.3862 214.3413 C 157.2498 214.2277 157.0635 214.1709 156.8273 214.1709 C 156.5727 214.1709 156.2635 214.2393 155.8998 214.3761 L 155.709 213.8721 L 159.4764 212.3321 L 160.077 212.3321 z "
   id="path780" /><path
   d="M 310.6036 54.35764 C 311.8881 54.63184 312.8491 55.07034 313.4867 55.67324 C 314.3702 56.51384 314.8119 57.54164 314.8119 58.75674 C 314.8119 59.67954 314.5206 60.56354 313.938 61.40864 C 313.3554 62.25374 312.5565 62.87044 311.5414 63.25884 C 310.5262 63.64714 308.9762 63.84134 306.8914 63.84134 L 298.1519 63.84134 L 298.1519 63.33734 L 298.844 63.33734 C 299.6132 63.33734 300.1651 63.09164 300.5 62.60014 C 300.7079 62.28134 300.8119 61.60304 300.8119 60.56534 L 300.8119 48.55334 C 300.8119 47.40624 300.6807 46.68244 300.4182 46.38204 C 300.0655 45.98154 299.5408 45.78134 298.844 45.78134 L 298.1519 45.78134 L 298.1519 45.27734 L 306.1503 45.27734 C 307.6424 45.27734 308.839 45.38674 309.74 45.60544 C 311.105 45.93354 312.1469 46.51484 312.8657 47.34914 C 313.5845 48.18344 313.9439 49.14294 313.9439 50.22764 C 313.9439 51.15744 313.6622 51.98934 313.0987 52.72334 C 312.5352 53.45734 311.7035 54.00214 310.6036 54.35764 z M 303.4439 53.59854 C 303.7811 53.66214 304.1659 53.70984 304.5985 53.74164 C 305.031 53.77344 305.507 53.78934 306.0265 53.78934 C 307.3562 53.78934 308.3558 53.64624 309.0253 53.36014 C 309.6948 53.07404 310.206 52.63584 310.5587 52.04544 C 310.9115 51.45514 311.0879 50.81044 311.0879 50.11124 C 311.0879 49.03034 310.6465 48.10844 309.7638 47.34564 C 308.8811 46.58274 307.5934 46.20134 305.9009 46.20134 C 304.9909 46.20134 304.1719 46.30124 303.4439 46.50104 L 303.4439 53.59854 z M 303.4439 62.49204 C 304.505 62.73824 305.5522 62.86134 306.5856 62.86134 C 308.2414 62.86134 309.5037 62.48994 310.3726 61.74724 C 311.2415 61.00454 311.6759 60.08644 311.6759 58.99294 C 311.6759 58.27314 311.4744 57.58054 311.0715 56.91524 C 310.6686 56.24994 310.0253 55.72604 309.1417 55.34334 C 308.2581 54.96064 307.165 54.76934 305.8624 54.76934 C 305.2977 54.76934 304.815 54.77844 304.4141 54.79664 C 304.0132 54.81494 303.6898 54.84674 303.4439 54.89224 L 303.4439 62.49204 z "
   style="font-size:28;font-weight:normal;fill:#0000ff;font-family:Times New Roman;"
   id="path781" /><path
   d="M 277.0337 89.27032 C 278.3182 89.54452 279.2792 89.98302 279.9168 90.58592 C 280.8003 91.42652 281.242 92.45432 281.242 93.66942 C 281.242 94.59222 280.9507 95.47622 280.3681 96.32132 C 279.7855 97.16642 278.9866 97.78312 277.9715 98.17152 C 276.9563 98.55982 275.4063 98.75402 273.3215 98.75402 L 264.582 98.75402 L 264.582 98.25002 L 265.2741 98.25002 C 266.0433 98.25002 266.5952 98.00432 266.9301 97.51282 C 267.138 97.19402 267.242 96.51572 267.242 95.47802 L 267.242 83.46602 C 267.242 82.31892 267.1108 81.59512 266.8483 81.29472 C 266.4956 80.89422 265.9709 80.69402 265.2741 80.69402 L 264.582 80.69402 L 264.582 80.19002 L 272.5804 80.19002 C 274.0725 80.19002 275.2691 80.29942 276.1701 80.51812 C 277.5351 80.84622 278.577 81.42752 279.2958 82.26182 C 280.0146 83.09612 280.374 84.05562 280.374 85.14032 C 280.374 86.07012 280.0923 86.90202 279.5288 87.63602 C 278.9653 88.37002 278.1336 88.91482 277.0337 89.27032 z M 269.874 88.51122 C 270.2112 88.57482 270.596 88.62252 271.0286 88.65432 C 271.4611 88.68612 271.9371 88.70202 272.4566 88.70202 C 273.7863 88.70202 274.7859 88.55892 275.4554 88.27282 C 276.1249 87.98672 276.6361 87.54852 276.9888 86.95812 C 277.3416 86.36782 277.518 85.72312 277.518 85.02392 C 277.518 83.94302 277.0766 83.02112 276.1939 82.25832 C 275.3112 81.49542 274.0235 81.11402 272.331 81.11402 C 271.421 81.11402 270.602 81.21392 269.874 81.41372 L 269.874 88.51122 z M 269.874 97.40472 C 270.9351 97.65092 271.9823 97.77402 273.0157 97.77402 C 274.6715 97.77402 275.9338 97.40262 276.8027 96.65992 C 277.6716 95.91722 278.106 94.99912 278.106 93.90562 C 278.106 93.18582 277.9045 92.49322 277.5016 91.82792 C 277.0987 91.16262 276.4554 90.63872 275.5718 90.25602 C 274.6882 89.87332 273.5951 89.68202 272.2925 89.68202 C 271.7278 89.68202 271.2451 89.69112 270.8442 89.70932 C 270.4433 89.72762 270.1199 89.75942 269.874 89.80492 L 269.874 97.40472 z "
   style="font-size:28;font-weight:normal;fill:#0000ff;font-family:Times New Roman;"
   id="path782" /><path
   d="M 106.2991 53.46099 L 115.0781 44.68199 L 123.8571 53.20279 "
   style="font-size:12;fill:none;fill-rule:evenodd;stroke:#000000;stroke-width:2.5;"
   id="path1432" /><path
   style="font-size:28;font-weight:normal;stroke-width:1;font-family:Times New Roman;"
   d="M 106.8713 109.728 C 105.5862 110.7261 104.7796 111.303 104.4514 111.4587 C 103.9594 111.6877 103.4354 111.8022 102.8795 111.8022 C 102.0135 111.8022 101.3003 111.5056 100.7399 110.9125 C 100.1795 110.3194 99.89925 109.5393 99.89925 108.5721 C 99.89925 107.9608 100.0359 107.4315 100.3092 106.9844 C 100.6831 106.364 101.3326 105.78 102.2576 105.2324 C 103.1826 104.6848 104.7205 104.0187 106.8713 103.2342 L 106.8713 102.7428 C 106.8713 101.4968 106.6736 100.6419 106.2782 100.178 C 105.8829 99.7141 105.3079 99.48216 104.5534 99.48216 C 103.9808 99.48216 103.5264 99.63718 103.1901 99.94722 C 102.8448 100.2576 102.6721 100.6134 102.6721 101.0147 L 102.6993 101.8083 C 102.6993 102.2281 102.5916 102.5519 102.3762 102.78 C 102.1608 103.0081 101.8788 103.1222 101.5303 103.1222 C 101.191 103.1222 100.9137 103.0034 100.6983 102.766 C 100.4829 102.5286 100.3753 102.2043 100.3753 101.793 C 100.3753 101.0076 100.7769 100.2861 101.5803 99.6285 C 102.3837 98.97094 103.5113 98.64216 104.9629 98.64216 C 106.0765 98.64216 106.9894 98.82868 107.7016 99.20172 C 108.24 99.48376 108.6371 99.92505 108.8929 100.5256 C 109.0571 100.9167 109.1393 101.7173 109.1393 102.9275 L 109.1393 107.1721 C 109.1393 108.3641 109.1621 109.0943 109.2079 109.3627 C 109.2537 109.631 109.3293 109.8107 109.4346 109.9017 C 109.5399 109.9927 109.6612 110.0382 109.7986 110.0382 C 109.945 110.0382 110.0732 110.0064 110.1831 109.9428 C 110.3753 109.8244 110.746 109.4922 111.2953 108.9462 L 111.2953 109.7105 C 110.2695 111.0863 109.2895 111.7742 108.3553 111.7742 C 107.9064 111.7742 107.5491 111.6196 107.2834 111.3104 C 107.0177 111.0012 106.8803 110.4738 106.8713 109.728 z M 106.8713 108.8403 L 106.8713 104.0742 C 105.4867 104.6204 104.5926 105.0073 104.1889 105.2348 C 103.4647 105.6356 102.9467 106.0545 102.6349 106.4916 C 102.3231 106.9286 102.1673 107.4066 102.1673 107.9255 C 102.1673 108.5808 102.3644 109.1248 102.7588 109.5573 C 103.1531 109.9899 103.6069 110.2062 104.1203 110.2062 C 104.8173 110.2062 105.7343 109.7509 106.8713 108.8403 z "
   id="path794" /></svg>
