<?xml version="1.0" encoding="UTF-8" standalone="no"?>
<!DOCTYPE svg PUBLIC "-//W3C//DTD SVG 20010904//EN"
"http://www.w3.org/TR/2001/REC-SVG-20010904/DTD/svg10.dtd">
<!-- Created with Sodipodi ("http://www.sodipodi.com/") -->
<svg
   xmlns="http://www.w3.org/2000/svg"
   xmlns:xlink="http://www.w3.org/1999/xlink"
   xmlns:sodipodi="http://sodipodi.sourceforge.net/DTD/sodipodi-0.dtd"
   xml:space="preserve"
   version="1.0"
   x="0"
   y="0"
   width="180"
   height="180"
   id="svg602"
   sodipodi:version="0.34"
   sodipodi:docname="C:\Documents and Settings\All Users\Documents\WORK\modwest\site\ndz\docroot\emagnettest\basics\biotsavart.svg"><sodipodi:namedview
   id="base" /><defs
   id="defs604" /><path
   d="M 109.2857 105.5639 L 163.421 102.8571 "
   style="font-size:12;fill:none;fill-rule:evenodd;stroke:#000000;stroke-width:2.5;"
   id="path630" /><path
   d="M 107.9323 105.9023 L 71.72932 140.7519 "
   style="font-size:12;fill:none;fill-rule:evenodd;stroke:#000000;stroke-width:2.5;"
   id="path631" /><path
   d="M 72.40602 140.0751 L 72.40602 104.8872 "
   style="font-size:12;fill:none;fill-rule:evenodd;stroke:#0000ff;stroke-width:2.5;stroke-opacity:1;"
   id="path632" /><path
   d="M 77.48633 108.419 L 72.62537 99.30655 L 67.32568 108.1225 L 77.48633 108.419 L 77.48633 108.419 z "
   style="font-size:12;fill:#0000ff;fill-rule:evenodd;stroke:#0000ff;stroke-width:0.75252;stroke-opacity:1;fill-opacity:1;"
   id="path634" /><path
   d="M 161.0782 107.6748 L 169.6684 101.9413 L 160.374 97.53431 L 161.0782 107.6748 L 161.0782 107.6748 z "
   style="font-size:12;fill-rule:evenodd;stroke:#000000;stroke-width:0.75252;"
   id="path635" /><path
   d="M 154.7275 118.442 A 42.29324 41.44737 0 0 1 91.06986 143.4645"
   transform="translate(-7.105264,-11.16541)"
   style="font-size:12;fill:none;fill-rule:evenodd;stroke:#000000;stroke-width:2.5;stroke-dasharray:2.5 5 ;stroke-dashoffset:0;"
   id="path637" /><path
   style="font-size:18;font-weight:normal;font-family:Times New Roman;"
   d="M 90.22723 109.108 L 90.22723 110.9257 C 90.89623 109.7139 91.58276 109.108 92.28682 109.108 C 92.60688 109.108 92.87163 109.2065 93.08107 109.4036 C 93.29051 109.6007 93.39523 109.8286 93.39523 110.0873 C 93.39523 110.3168 93.31985 110.511 93.1691 110.6698 C 93.01835 110.8286 92.83863 110.908 92.62995 110.908 C 92.42707 110.908 92.19884 110.806 91.94524 110.602 C 91.69165 110.398 91.50363 110.296 91.3812 110.296 C 91.27638 110.296 91.16276 110.3549 91.04032 110.4726 C 90.77801 110.714 90.50698 111.1112 90.22723 111.6643 L 90.22723 115.516 C 90.22723 115.9645 90.28282 116.3038 90.39401 116.5339 C 90.46995 116.6932 90.60448 116.8244 90.7976 116.9275 C 90.99073 117.0305 91.2686 117.082 91.63123 117.082 L 91.63123 117.406 L 87.50923 117.406 L 87.50923 117.082 C 87.9176 117.082 88.22098 117.0176 88.41935 116.8888 C 88.56504 116.795 88.66704 116.6456 88.72535 116.4405 C 88.7546 116.3409 88.76923 116.0568 88.76923 115.588 L 88.76923 112.474 C 88.76923 111.5386 88.75024 110.9817 88.71227 110.8034 C 88.67431 110.6251 88.60418 110.495 88.5019 110.413 C 88.39962 110.3311 88.27254 110.2901 88.12067 110.2901 C 87.93935 110.2901 87.73479 110.3341 87.50698 110.422 L 87.41923 110.098 L 89.85738 109.108 L 90.22723 109.108 z "
   id="path671" /><path
   transform="translate(0.338345,-0.676687)"
   style="font-size:18;font-weight:normal;fill:#0000ff;font-family:Times New Roman;"
   d="M 54.29111 128.6552 C 53.89848 129.0732 53.51467 129.3719 53.13967 129.5513 C 52.76467 129.7307 52.36033 129.8205 51.92664 129.8205 C 51.04764 129.8205 50.27997 129.4532 49.62362 128.7188 C 48.96728 127.9844 48.63911 127.0408 48.63911 125.888 C 48.63911 124.7353 49.00244 123.6805 49.72909 122.7237 C 50.45575 121.7669 51.39039 121.2885 52.53301 121.2885 C 53.24214 121.2885 53.82817 121.5153 54.29111 121.9691 L 54.29111 120.4785 C 54.29111 119.564 54.26903 119.002 54.22487 118.7924 C 54.18072 118.5827 54.11158 118.4399 54.01745 118.3639 C 53.92333 118.2878 53.80576 118.2498 53.66476 118.2498 C 53.51176 118.2498 53.3088 118.2967 53.05586 118.3905 L 52.94111 118.0665 L 55.3517 117.0765 L 55.74911 117.0765 L 55.74911 126.3825 C 55.74911 127.3207 55.77119 127.8932 55.81534 128.1001 C 55.8595 128.3069 55.93009 128.4512 56.02712 128.533 C 56.12416 128.6149 56.23736 128.6558 56.36673 128.6558 C 56.52555 128.6558 56.73733 128.606 57.00208 128.5065 L 57.09911 128.8305 L 54.69723 129.8205 L 54.29111 129.8205 L 54.29111 128.6552 z M 54.29111 128.041 L 54.29111 123.917 C 54.25586 123.5133 54.1502 123.1477 53.97414 122.82 C 53.79808 122.4923 53.56478 122.2452 53.27425 122.0785 C 52.98372 121.9118 52.70045 121.8285 52.42445 121.8285 C 51.90808 121.8285 51.44739 122.0596 51.04239 122.5217 C 50.5082 123.1302 50.24111 124.0194 50.24111 125.1894 C 50.24111 126.371 50.49939 127.2763 51.01595 127.9051 C 51.53251 128.534 52.10767 128.8485 52.74142 128.8485 C 53.27561 128.8485 53.79217 128.5793 54.29111 128.041 z "
   id="path672" /><path
   style="font-size:18;font-weight:normal;fill:#0000ff;font-family:Times New Roman;"
   d="M 65.49109 122.5836 C 66.31684 122.7599 66.93465 123.0418 67.34453 123.4293 C 67.91247 123.9697 68.19643 124.6305 68.19643 125.4116 C 68.19643 126.0048 68.00917 126.5731 67.63464 127.1164 C 67.26011 127.6597 66.74654 128.0561 66.09395 128.3058 C 65.44136 128.5555 64.44493 128.6803 63.10468 128.6803 L 57.48644 128.6803 L 57.48644 128.3563 L 57.93137 128.3563 C 58.42581 128.3563 58.78065 128.1983 58.9959 127.8824 C 59.12959 127.6774 59.19644 127.2414 59.19644 126.5743 L 59.19644 118.8523 C 59.19644 118.1148 59.11206 117.6496 58.94331 117.4564 C 58.71662 117.199 58.37931 117.0703 57.93137 117.0703 L 57.48644 117.0703 L 57.48644 116.7463 L 62.62825 116.7463 C 63.5875 116.7463 64.35672 116.8166 64.9359 116.9572 C 65.8134 117.1682 66.4832 117.5418 66.94529 118.0781 C 67.40739 118.6145 67.63843 119.2313 67.63843 119.9286 C 67.63843 120.5264 67.45731 121.0612 67.09506 121.533 C 66.73281 122.0049 66.19815 122.3551 65.49109 122.5836 z M 60.88844 122.0957 C 61.10519 122.1365 61.35259 122.1672 61.63065 122.1876 C 61.90872 122.2081 62.21472 122.2183 62.54865 122.2183 C 63.40347 122.2183 64.04608 122.1263 64.47648 121.9424 C 64.90689 121.7584 65.23548 121.4767 65.46226 121.0972 C 65.68904 120.7177 65.80243 120.3033 65.80243 119.8538 C 65.80243 119.1589 65.5187 118.5663 64.95123 118.0759 C 64.38376 117.5855 63.556 117.3403 62.46793 117.3403 C 61.88293 117.3403 61.35644 117.4045 60.88844 117.5329 L 60.88844 122.0957 z M 60.88844 127.8129 C 61.57056 127.9712 62.24378 128.0503 62.90809 128.0503 C 63.97253 128.0503 64.78403 127.8115 65.34259 127.3341 C 65.90115 126.8566 66.18043 126.2664 66.18043 125.5635 C 66.18043 125.1007 66.05092 124.6555 65.79189 124.2278 C 65.53286 123.8001 65.11933 123.4633 64.55129 123.2173 C 63.98326 122.9713 63.28056 122.8483 62.44318 122.8483 C 62.08018 122.8483 61.76983 122.8541 61.51211 122.8659 C 61.25439 122.8776 61.0465 122.8981 60.88844 122.9273 L 60.88844 127.8129 z "
   id="path673" /><path
   style="font-size:18;font-weight:normal;font-family:Times New Roman;"
   d="M 158.1633 95.49735 C 157.7707 95.91529 157.3868 96.21398 157.0118 96.39342 C 156.6368 96.57285 156.2325 96.66257 155.7988 96.66257 C 154.9198 96.66257 154.1521 96.29535 153.4958 95.56092 C 152.8395 94.82648 152.5113 93.88289 152.5113 92.73014 C 152.5113 91.57739 152.8746 90.52261 153.6013 89.56579 C 154.3279 88.60898 155.2626 88.13057 156.4052 88.13057 C 157.1143 88.13057 157.7003 88.35745 158.1633 88.8112 L 158.1633 87.32057 C 158.1633 86.40614 158.1412 85.84411 158.097 85.63448 C 158.0529 85.42486 157.9838 85.28203 157.8896 85.206 C 157.7955 85.12996 157.6779 85.09195 157.5369 85.09195 C 157.3839 85.09195 157.181 85.13882 156.928 85.23257 L 156.8133 84.90857 L 159.2239 83.91857 L 159.6213 83.91857 L 159.6213 93.22457 C 159.6213 94.16282 159.6434 94.73535 159.6875 94.94217 C 159.7317 95.14898 159.8023 95.29331 159.8993 95.37515 C 159.9963 95.457 160.1095 95.49792 160.2389 95.49792 C 160.3977 95.49792 160.6095 95.44814 160.8743 95.34857 L 160.9713 95.67257 L 158.5694 96.66257 L 158.1633 96.66257 L 158.1633 95.49735 z M 158.1633 94.8831 L 158.1633 90.75914 C 158.128 90.35545 158.0224 89.98978 157.8463 89.66212 C 157.6703 89.33446 157.437 89.08729 157.1464 88.92061 C 156.8559 88.75392 156.5726 88.67057 156.2966 88.67057 C 155.7803 88.67057 155.3196 88.90167 154.9146 89.36386 C 154.3804 89.97229 154.1133 90.86151 154.1133 92.03151 C 154.1133 93.21314 154.3716 94.11839 154.8881 94.74726 C 155.4047 95.37614 155.9798 95.69057 156.6136 95.69057 C 157.1478 95.69057 157.6643 95.42142 158.1633 94.8831 z "
   id="path670" /><path
   style="font-size:18;font-weight:normal;font-family:Times New Roman;"
   d="M 165.4157 83.91857 L 165.4157 94.61057 C 165.4157 95.11157 165.4521 95.44359 165.5251 95.60662 C 165.598 95.76965 165.7104 95.8934 165.8621 95.97787 C 166.0139 96.06234 166.2971 96.10457 166.7117 96.10457 L 166.7117 96.42857 L 162.7697 96.42857 L 162.7697 96.10457 C 163.1392 96.10457 163.3915 96.0667 163.5264 95.99095 C 163.6613 95.9152 163.7669 95.78995 163.8432 95.6152 C 163.9195 95.44045 163.9577 95.10557 163.9577 94.61057 L 163.9577 87.28457 C 163.9577 86.38607 163.9372 85.83393 163.8963 85.62815 C 163.8555 85.42237 163.7898 85.28156 163.6992 85.20571 C 163.6086 85.12987 163.4932 85.09195 163.353 85.09195 C 163.2011 85.09195 163.0083 85.13882 162.7747 85.23257 L 162.6257 84.90857 L 165.0208 83.91857 L 165.4157 83.91857 z "
   id="path669" /><path
   d="M 6.766917 170.8647 C 78.49625 -1.015015 110.6391 215.188 170.8647 8.796997 "
   style="font-size:12;fill:none;fill-rule:evenodd;stroke:#ff0000;stroke-width:2.5;stroke-opacity:1;"
   id="path611" /><path
   style="font-size:18;font-weight:normal;fill:#ff0000;stroke:#ff0000;font-family:Times New Roman;"
   d="M 154.2024 26.39976 C 154.4482 26.39976 154.6574 26.48606 154.83 26.65865 C 155.0026 26.83124 155.0889 27.04045 155.0889 27.28626 C 155.0889 27.53207 155.0026 27.74278 154.83 27.91837 C 154.6574 28.09396 154.4482 28.18176 154.2024 28.18176 C 153.9566 28.18176 153.7459 28.09396 153.5703 27.91837 C 153.3947 27.74278 153.3069 27.53207 153.3069 27.28626 C 153.3069 27.04045 153.3932 26.83124 153.5658 26.65865 C 153.7384 26.48606 153.9506 26.39976 154.2024 26.39976 z M 154.9269 30.61176 L 154.9269 37.09176 C 154.9269 37.59276 154.9636 37.92623 155.037 38.09217 C 155.1104 38.2581 155.2191 38.38185 155.3629 38.46342 C 155.5067 38.54498 155.7694 38.58576 156.1509 38.58576 L 156.1509 38.90976 L 152.2449 38.90976 L 152.2449 38.58576 C 152.6355 38.58576 152.8978 38.54788 153.0319 38.47213 C 153.1659 38.39638 153.2723 38.27113 153.3509 38.09638 C 153.4296 37.92163 153.4689 37.58676 153.4689 37.09176 L 153.4689 33.97776 C 153.4689 33.11038 153.4426 32.54863 153.3899 32.29251 C 153.349 32.10613 153.2848 31.97643 153.1971 31.9034 C 153.1094 31.83037 152.9897 31.79385 152.8378 31.79385 C 152.6741 31.79385 152.4754 31.83782 152.2416 31.92576 L 152.1189 31.60176 L 154.5408 30.61176 L 154.9269 30.61176 z "
   id="path668" /><path
   d="M 173.9514 15.14091 L 171.9362 5.011562 L 164.3115 11.91606 L 173.9514 15.14091 L 173.9514 15.14091 z "
   style="font-size:12;fill:#ff0000;fill-rule:evenodd;stroke:#ff0000;stroke-width:0.75252;stroke-opacity:1;fill-opacity:1;"
   id="path636" /><path
   style="font-size:18;font-weight:normal;stroke-width:1;font-family:Times New Roman;"
   d="M 123.0741 118.6932 C 124.0633 118.6932 124.8975 119.271 125.5765 120.4265 C 126.2555 121.5821 126.5951 123.0873 126.5951 124.942 C 126.5951 126.9428 126.2292 128.5196 125.4975 129.6722 C 124.7658 130.8249 123.9199 131.4012 122.9599 131.4012 C 122.0175 131.4012 121.1878 130.841 120.4707 129.7206 C 119.7536 128.6002 119.3951 127.0804 119.3951 125.1614 C 119.3951 123.2363 119.7507 121.677 120.4618 120.4835 C 121.173 119.29 122.0438 118.6932 123.0741 118.6932 z M 124.9571 124.7592 C 124.9571 121.0512 124.3118 119.1972 123.0212 119.1972 C 121.6958 119.1972 121.0331 121.0512 121.0331 124.7592 L 124.9571 124.7592 z M 121.0331 125.2992 C 121.0331 127.2121 121.2104 128.6233 121.565 129.5328 C 121.9197 130.4424 122.3964 130.8972 122.9951 130.8972 C 124.2914 130.8972 124.9454 129.0312 124.9571 125.2992 L 121.0331 125.2992 z "
   id="path702" /></svg>
