<?xml version="1.0" encoding="UTF-8" standalone="no"?>
<!DOCTYPE svg PUBLIC "-//W3C//DTD SVG 1.0//EN"
"http://www.w3.org/TR/2001/REC-SVG-20010904/DTD/svg10.dtd">
<!-- Created with Sodipodi ("http://www.sodipodi.com/") -->
<svg
   xmlns="http://www.w3.org/2000/svg"
   xmlns:xlink="http://www.w3.org/1999/xlink"
   version="1.0"
   x="0"
   y="0"
   width="270"
   height="270"
   id="svg602"
   xml:space="preserve"><defs
   id="defs604" /><path
   d="M 4.762217 131.4971 L 91.9622 131.7046 "
   style="font-size:12;fill:none;fill-rule:evenodd;stroke:#000000;stroke-width:2.5;stroke-dasharray:5 5 ;stroke-dashoffset:0;stroke-opacity:0.3162;"
   id="path637" /><ellipse
   cx="84.1720886"
   cy="80.4746246"
   rx="26.0102596"
   ry="56.1749382"
   transform="matrix(1.964959,0,0,1.857326,-71.53589,-18.09742)"
   style="font-size:12;fill:none;fill-rule:evenodd;stroke:#ff0000;stroke-width:1.3086;"
   id="path605" /><path
   d="M 94.04307 28.29936 L 94.39701 131.5507 "
   style="font-size:12;fill:none;fill-rule:evenodd;stroke:#000000;stroke-width:2.499959;"
   id="path610" /><path
   d="M 86.00153 42.76663 L 94.31035 29.06071 L 102.2579 42.76663 "
   style="font-size:12;fill:none;fill-rule:evenodd;stroke:#000000;stroke-width:2.499959;"
   id="path620" /><g
   transform="translate(42.01891,42.58672)"
   style="font-size:12;"
   id="g624"><path
   d="M 52.02052 89.32534 L 127.5225 89.32534 "
   style="fill:none;fill-rule:evenodd;stroke:#000000;stroke-width:2.5;"
   id="path611" /><path
   d="M 119.575 81.01646 L 127.7032 89.32529 L 119.575 97.27288 "
   style="fill:none;fill-rule:evenodd;stroke:#000000;stroke-width:2.5;"
   id="path619" /></g><path
   d="M 228.199 131.7046 L 261.9672 131.4971 "
   style="font-size:12;fill:none;fill-rule:evenodd;stroke:#000000;stroke-width:2.5;stroke-dasharray:5 5 ;stroke-dashoffset:0;stroke-opacity:0.3162;"
   id="path635" /><path
   d="M 129.0178 185.9306 L 145.2579 186.5863 L 139.4016 177.5987 L 129.0178 185.9306 L 129.0178 185.9306 z "
   style="font-size:12;fill:#ff0000;fill-rule:evenodd;"
   id="path644" /><path
   d="M 172.7178 131.9121 L 217.9144 131.5508 "
   style="font-size:12;fill:none;fill-rule:evenodd;stroke:#0000fb;stroke-width:2.500021;"
   id="path612" /><path
   d="M 214.1956 123.3018 L 214.1956 140.1611 L 227.5455 131.7315 L 214.1956 123.3018 L 214.1956 123.3018 z "
   style="font-size:12;fill:#0000ff;fill-rule:evenodd;"
   id="path614" /><ellipse
   cx="134.139587"
   cy="96.2794647"
   rx="2.80106354"
   ry="2.80105972"
   transform="matrix(0.900924,0,0,0.88889,50.67433,46.33357)"
   style="font-size:12;fill:#0000ff;fill-rule:evenodd;"
   id="path627" /><path
   d="M 197.4703 114.5857 C 198.7548 114.8599 199.7158 115.2984 200.3534 115.9013 C 201.2368 116.7418 201.6786 117.7697 201.6786 118.9848 C 201.6786 119.9076 201.3873 120.7916 200.8047 121.6367 C 200.2221 122.4818 199.4232 123.0985 198.408 123.4869 C 197.3929 123.8752 195.8429 124.0694 193.7581 124.0694 L 185.0186 124.0694 L 185.0186 123.5654 L 185.7107 123.5654 C 186.4798 123.5654 187.0318 123.3197 187.3666 122.8282 C 187.5746 122.5094 187.6786 121.8311 187.6786 120.7934 L 187.6786 108.7814 C 187.6786 107.6343 187.5473 106.9105 187.2848 106.6101 C 186.9322 106.2096 186.4075 106.0094 185.7107 106.0094 L 185.0186 106.0094 L 185.0186 105.5054 L 193.0169 105.5054 C 194.5091 105.5054 195.7057 105.6148 196.6066 105.8335 C 197.9716 106.1616 199.0135 106.7428 199.7324 107.5772 C 200.4512 108.4115 200.8106 109.371 200.8106 110.4557 C 200.8106 111.3855 200.5288 112.2174 199.9653 112.9514 C 199.4018 113.6854 198.5701 114.2302 197.4703 114.5857 z M 190.3106 113.8266 C 190.6477 113.8902 191.0326 113.9379 191.4651 113.9697 C 191.8977 114.0015 192.3737 114.0174 192.8931 114.0174 C 194.2228 114.0174 195.2225 113.8743 195.892 113.5882 C 196.5615 113.3021 197.0726 112.8638 197.4254 112.2735 C 197.7782 111.6832 197.9546 111.0384 197.9546 110.3393 C 197.9546 109.2584 197.5132 108.3365 196.6305 107.5737 C 195.7477 106.8108 194.4601 106.4294 192.7676 106.4294 C 191.8576 106.4294 191.0386 106.5293 190.3106 106.7291 L 190.3106 113.8266 z M 190.3106 122.7201 C 191.3717 122.9663 192.4189 123.0894 193.4523 123.0894 C 195.1081 123.0894 196.3704 122.718 197.2393 121.9753 C 198.1081 121.2326 198.5426 120.3145 198.5426 119.221 C 198.5426 118.5012 198.3411 117.8086 197.9382 117.1433 C 197.5352 116.478 196.892 115.954 196.0084 115.5714 C 195.1247 115.1887 194.0317 114.9974 192.7291 114.9974 C 192.1644 114.9974 191.6816 115.0065 191.2807 115.0247 C 190.8798 115.043 190.5564 115.0748 190.3106 115.1203 L 190.3106 122.7201 z "
   style="font-size:28;font-weight:normal;fill:#0000ff;font-family:Times New Roman;"
   id="path718" /><path
   d="M 124.1495 113.7967 L 130.0015 113.7967 L 130.0015 114.3007 C 129.629 114.3007 129.3679 114.3656 129.2181 114.4954 C 129.0684 114.6251 128.9935 114.7966 128.9935 115.0099 C 128.9935 115.2324 129.1581 115.5754 129.4874 116.0389 C 129.5886 116.1832 129.7406 116.409 129.9433 116.7161 L 130.8515 118.1494 L 131.8827 116.7183 C 132.5469 115.8264 132.8811 115.2573 132.8855 115.0112 C 132.8855 114.8123 132.8078 114.6441 132.6525 114.5067 C 132.4972 114.3694 132.246 114.3007 131.8989 114.3007 L 131.8989 113.7967 L 136.1055 113.7967 L 136.1055 114.3007 C 135.6549 114.3281 135.2642 114.4509 134.9334 114.669 C 134.4828 114.9779 133.8732 115.6506 133.1047 116.6872 L 131.3901 118.9627 L 134.5095 123.4917 C 135.2751 124.5983 135.822 125.2635 136.1501 125.4875 C 136.4782 125.7115 136.902 125.8373 137.4215 125.8647 L 137.4215 126.3407 L 131.5008 126.3407 L 131.5008 125.8647 C 131.9109 125.8647 132.2298 125.7728 132.4576 125.589 C 132.6309 125.4604 132.7175 125.2905 132.7175 125.0794 C 132.7175 124.8682 132.4239 124.3356 131.8368 123.4816 L 130.0019 120.8045 L 127.9903 123.4746 C 127.3898 124.3129 127.0895 124.8101 127.0895 124.9665 C 127.0895 125.1876 127.1922 125.3879 127.3975 125.5676 C 127.6028 125.7473 127.9108 125.8463 128.3215 125.8647 L 128.3215 126.3407 L 124.2335 126.3407 L 124.2335 125.8647 C 124.5607 125.8189 124.847 125.7045 125.0923 125.5217 C 125.4376 125.2565 126.0194 124.5799 126.8375 123.4917 L 129.448 119.9869 L 127.0895 116.5367 C 126.4181 115.5491 125.8986 114.9296 125.5311 114.678 C 125.1636 114.4264 124.7031 114.3007 124.1495 114.3007 L 124.1495 113.7967 z "
   style="font-size:28;font-weight:normal;font-family:Times New Roman;"
   id="path717" /><path
   d="M 155.6898 177.8586 C 156.0722 177.8586 156.3976 177.9928 156.6661 178.2613 C 156.9346 178.5298 157.0688 178.8552 157.0688 179.2376 C 157.0688 179.62 156.9346 179.9477 156.6661 180.2209 C 156.3976 180.494 156.0722 180.6306 155.6898 180.6306 C 155.3075 180.6306 154.9797 180.494 154.7066 180.2209 C 154.4334 179.9477 154.2968 179.62 154.2968 179.2376 C 154.2968 178.8552 154.4311 178.5298 154.6996 178.2613 C 154.968 177.9928 155.2981 177.8586 155.6898 177.8586 z M 156.8168 184.4106 L 156.8168 194.4906 C 156.8168 195.2699 156.8739 195.7887 156.9881 196.0468 C 157.1023 196.3049 157.2713 196.4974 157.495 196.6243 C 157.7187 196.7512 158.1273 196.8146 158.7208 196.8146 L 158.7208 197.3186 L 152.6448 197.3186 L 152.6448 196.8146 C 153.2524 196.8146 153.6604 196.7557 153.869 196.6379 C 154.0775 196.52 154.243 196.3252 154.3653 196.0534 C 154.4877 195.7815 154.5488 195.2606 154.5488 194.4906 L 154.5488 189.6466 C 154.5488 188.2974 154.5079 187.4235 154.4259 187.0251 C 154.3623 186.7352 154.2624 186.5334 154.126 186.4198 C 153.9896 186.3062 153.8033 186.2494 153.5671 186.2494 C 153.3125 186.2494 153.0033 186.3178 152.6396 186.4546 L 152.4488 185.9506 L 156.2162 184.4106 L 156.8168 184.4106 z "
   style="font-size:28;font-weight:normal;fill:#ff0000;font-family:Times New Roman;"
   id="path719" /><path
   d="M 82.92362 87.88063 L 82.92362 90.7082 C 83.96429 88.82316 85.03222 87.88063 86.12743 87.88063 C 86.62531 87.88063 87.03714 88.03391 87.36293 88.34045 C 87.68872 88.64699 87.85162 89.00151 87.85162 89.40401 C 87.85162 89.76101 87.73437 90.06303 87.49987 90.31007 C 87.26537 90.55711 86.98581 90.68063 86.66118 90.68063 C 86.3456 90.68063 85.99057 90.52197 85.59609 90.20463 C 85.20161 89.8873 84.90914 89.72863 84.71868 89.72863 C 84.55564 89.72863 84.37889 89.82022 84.18843 90.00338 C 83.78039 90.37876 83.35879 90.99666 82.92362 91.85707 L 82.92362 97.84864 C 82.92362 98.5463 83.0101 99.07407 83.18306 99.43195 C 83.30118 99.67986 83.51045 99.88396 83.81087 100.0442 C 84.11129 100.2045 84.54354 100.2846 85.10762 100.2846 L 85.10762 100.7886 L 78.69562 100.7886 L 78.69562 100.2846 C 79.33087 100.2846 79.80279 100.1844 80.11137 99.98407 C 80.33799 99.83824 80.49666 99.60578 80.58737 99.2867 C 80.63287 99.13182 80.65562 98.6898 80.65562 97.96064 L 80.65562 93.11664 C 80.65562 91.66151 80.62609 90.79526 80.56703 90.51788 C 80.50796 90.24051 80.39888 90.03809 80.23978 89.91063 C 80.08067 89.78318 79.88299 89.71945 79.64674 89.71945 C 79.3647 89.71945 79.04649 89.78784 78.69212 89.92463 L 78.55562 89.42063 L 82.34831 87.88063 L 82.92362 87.88063 z "
   style="font-size:28;font-weight:normal;font-family:Times New Roman;"
   id="path716" /></svg>
