<?xml version="1.0" encoding="UTF-8" standalone="no"?>
<!DOCTYPE svg PUBLIC "-//W3C//DTD SVG 1.0//EN"
"http://www.w3.org/TR/2001/REC-SVG-20010904/DTD/svg10.dtd">
<!-- Created with Sodipodi ("http://www.sodipodi.com/") -->
<svg
   xmlns="http://www.w3.org/2000/svg"
   xmlns:xlink="http://www.w3.org/1999/xlink"
   version="1.0"
   x="0"
   y="0"
   width="270"
   height="270"
   id="svg760"
   xml:space="preserve"><defs
   id="defs762" /><g
   transform="matrix(1.459173,0,0,1.459173,1.367333,-5.506385)"
   style="font-size:12;fill:none;stroke:#ffb9b7;stroke-width:1.7133;"
   id="g858"><path
   d="M 64.31757 144.5424 C 59.3096 143.8946 53.98458 124.2235 53.98458 98.60138 C 53.98458 72.97923 56.26752 51.72847 59.67827 51.7866 "
   transform="translate(-42.56956,-0.319632)"
   style="fill-rule:evenodd;"
   id="path771" /><path
   d="M 64.31757 144.5424 C 59.3096 143.8946 53.98458 124.2235 53.98458 98.60138 C 53.98458 72.97923 56.26752 51.72847 59.67827 51.7866 "
   transform="translate(35.91821,-0.319632)"
   style="fill-rule:evenodd;"
   id="path783" /><path
   d="M 64.31757 144.5424 C 59.3096 143.8946 53.98458 124.2235 53.98458 98.60138 C 53.98458 72.97923 56.26752 51.72847 59.67827 51.7866 "
   transform="translate(26.10725,-0.319632)"
   style="fill-rule:evenodd;"
   id="path786" /><path
   d="M 64.31757 144.5424 C 59.3096 143.8946 53.98458 124.2235 53.98458 98.60138 C 53.98458 72.97923 56.26752 51.72847 59.67827 51.7866 "
   transform="translate(16.29627,-0.319632)"
   style="fill-rule:evenodd;"
   id="path789" /><path
   d="M 64.31757 144.5424 C 59.3096 143.8946 53.98458 124.2235 53.98458 98.60138 C 53.98458 72.97923 56.26752 51.72847 59.67827 51.7866 "
   transform="translate(6.485298,-0.319632)"
   style="fill-rule:evenodd;"
   id="path792" /><path
   d="M 64.31757 144.5424 C 59.3096 143.8946 53.98458 124.2235 53.98458 98.60138 C 53.98458 72.97923 56.26752 51.72847 59.67827 51.7866 "
   transform="translate(-3.325672,-0.319632)"
   style="fill-rule:evenodd;"
   id="path795" /><path
   d="M 64.31757 144.5424 C 59.3096 143.8946 53.98458 124.2235 53.98458 98.60138 C 53.98458 72.97923 56.26752 51.72847 59.67827 51.7866 "
   transform="translate(-13.13664,-0.319632)"
   style="fill-rule:evenodd;"
   id="path798" /><path
   d="M 64.31757 144.5424 C 59.3096 143.8946 53.98458 124.2235 53.98458 98.60138 C 53.98458 72.97923 56.26752 51.72847 59.67827 51.7866 "
   transform="translate(-22.94761,-0.319632)"
   style="fill-rule:evenodd;"
   id="path801" /><path
   d="M 64.31757 144.5424 C 59.3096 143.8946 53.98458 124.2235 53.98458 98.60138 C 53.98458 72.97923 56.26752 51.72847 59.67827 51.7866 "
   transform="translate(-32.75859,-0.319632)"
   style="fill-rule:evenodd;"
   id="path804" /><path
   d="M 64.31757 144.5424 C 59.3096 143.8946 53.98458 124.2235 53.98458 98.60138 C 53.98458 72.97923 56.26752 51.72847 59.67827 51.7866 "
   transform="translate(104.595,-0.319632)"
   style="fill-rule:evenodd;"
   id="path807" /><path
   d="M 64.31757 144.5424 C 59.3096 143.8946 53.98458 124.2235 53.98458 98.60138 C 53.98458 72.97923 56.26752 51.72847 59.67827 51.7866 "
   transform="translate(45.72918,-0.319632)"
   style="fill-rule:evenodd;"
   id="path810" /><path
   d="M 64.31757 144.5424 C 59.3096 143.8946 53.98458 124.2235 53.98458 98.60138 C 53.98458 72.97923 56.26752 51.72847 59.67827 51.7866 "
   transform="translate(55.54015,-0.319632)"
   style="fill-rule:evenodd;"
   id="path813" /><path
   d="M 64.31757 144.5424 C 59.3096 143.8946 53.98458 124.2235 53.98458 98.60138 C 53.98458 72.97923 56.26752 51.72847 59.67827 51.7866 "
   transform="translate(65.35111,-0.319632)"
   style="fill-rule:evenodd;"
   id="path816" /><path
   d="M 64.31757 144.5424 C 59.3096 143.8946 53.98458 124.2235 53.98458 98.60138 C 53.98458 72.97923 56.26752 51.72847 59.67827 51.7866 "
   transform="translate(75.16209,-0.319632)"
   style="fill-rule:evenodd;"
   id="path819" /><path
   d="M 64.31757 144.5424 C 59.3096 143.8946 53.98458 124.2235 53.98458 98.60138 C 53.98458 72.97923 56.26752 51.72847 59.67827 51.7866 "
   transform="translate(84.97306,-0.319632)"
   style="fill-rule:evenodd;"
   id="path822" /><path
   d="M 64.31757 144.5424 C 59.3096 143.8946 53.98458 124.2235 53.98458 98.60138 C 53.98458 72.97923 56.26752 51.72847 59.67827 51.7866 "
   transform="translate(94.78402,-0.319632)"
   style="fill-rule:evenodd;"
   id="path825" /></g><path
   d="M 16.5 51.4375 C 19.75 51.5 21.375 74.75 21.375 100.375 C 21.375 126 16.0625 143.8125 10.625 144.25 "
   transform="matrix(1.459173,0,0,1.459173,1.367333,-5.506444)"
   style="font-size:12;fill:none;fill-rule:evenodd;stroke:#ff0000;stroke-width:1.7133;"
   id="path1064" /><path
   d="M 60.4375 104.375 C 60 127.9375 55 143.8125 49.875 144.25 "
   transform="matrix(1.459173,0,0,1.459173,1.367333,-5.506444)"
   style="font-size:12;fill:none;fill-rule:evenodd;stroke:#ff0000;stroke-width:1.7133;"
   id="path1066" /><path
   d="M 69.75 112.875 C 68.5625 131.75 64.1875 143.875 59.6875 144.25 "
   transform="matrix(1.459173,0,0,1.459173,1.367333,-5.506444)"
   style="font-size:12;fill:none;fill-rule:evenodd;stroke:#ff0000;stroke-width:1.7133;"
   id="path1068" /><path
   d="M 45.9375 51.4375 C 49.1875 51.5 50.8125 74.75 50.8125 100.375 C 50.8125 126 45.5 143.8125 40.0625 144.25 "
   transform="matrix(1.459173,0,0,1.459173,1.367333,-5.506444)"
   style="font-size:12;fill:none;fill-rule:evenodd;stroke:#ff0000;stroke-width:1.7133;"
   id="path1070" /><path
   d="M 36.125 51.4375 C 39.375 51.5 41 74.75 41 100.375 C 41 126 35.6875 143.8125 30.25 144.25 "
   transform="matrix(1.459173,0,0,1.459173,1.367333,-5.506444)"
   style="font-size:12;fill:none;fill-rule:evenodd;stroke:#ff0000;stroke-width:1.7133;"
   id="path1071" /><path
   d="M 26.3125 51.4375 C 29.5625 51.5 31.1875 74.75 31.1875 100.375 C 31.1875 126 25.875 143.8125 20.4375 144.25 "
   transform="matrix(1.459173,0,0,1.459173,1.367333,-5.506444)"
   style="font-size:12;fill:none;fill-rule:evenodd;stroke:#ff0000;stroke-width:1.7133;"
   id="path1072" /><path
   d="M 163.6875 51.4375 C 166.875 51.5 168.5625 74.75 168.5625 100.375 C 168.5625 126 163.1875 143.8125 157.8125 144.25 "
   transform="matrix(1.459173,0,0,1.459173,1.367333,-5.506444)"
   style="font-size:12;fill:none;fill-rule:evenodd;stroke:#ff0000;stroke-width:1.7133;"
   id="path1073" /><path
   d="M 134.25 51.4375 C 137.5 51.5 139.125 74.75 139.125 100.375 C 139.125 126 133.75 143.8125 128.375 144.25 "
   transform="matrix(1.459173,0,0,1.459173,1.367333,-5.506444)"
   style="font-size:12;fill:none;fill-rule:evenodd;stroke:#ff0000;stroke-width:1.7133;"
   id="path1077" /><path
   d="M 144.0625 51.4375 C 147.3125 51.5 148.9375 74.75 148.9375 100.375 C 148.9375 126 143.5625 143.8125 138.1875 144.25 "
   transform="matrix(1.459173,0,0,1.459173,1.367333,-5.506444)"
   style="font-size:12;fill:none;fill-rule:evenodd;stroke:#ff0000;stroke-width:1.7133;"
   id="path1078" /><path
   d="M 153.875 51.4375 C 157.0625 51.5 158.75 74.75 158.75 100.375 C 158.75 126 153.375 143.8125 148 144.25 "
   transform="matrix(1.459173,0,0,1.459173,1.367333,-5.506444)"
   style="font-size:12;fill:none;fill-rule:evenodd;stroke:#ff0000;stroke-width:1.7133;"
   id="path1079" /><path
   d="M 129 106.8125 C 128.3125 129.125 123.4375 143.875 118.5625 144.25 "
   transform="matrix(1.459173,0,0,1.459173,1.367333,-5.506444)"
   style="font-size:12;fill:none;fill-rule:evenodd;stroke:#ff0000;stroke-width:1.7133;"
   id="path1081" /><path
   d="M 118.75 113.875 C 117.4375 132.1875 113.125 143.875 108.75 144.25 "
   transform="matrix(1.459173,0,0,1.459173,1.367333,-5.506444)"
   style="font-size:12;fill:none;fill-rule:evenodd;stroke:#ff0000;stroke-width:1.7133;"
   id="path1082" /><path
   d="M 89.125 117.625 C 87.4375 133.6875 83.4375 143.9375 79.3125 144.25 "
   transform="matrix(1.459173,0,0,1.459173,1.367333,-5.506444)"
   style="font-size:12;fill:none;fill-rule:evenodd;stroke:#ff0000;stroke-width:1.7133;"
   id="path1084" /><path
   d="M 108.8125 116.875 C 107.1875 133.375 103.125 143.9375 98.9375 144.25 "
   transform="matrix(1.459173,0,0,1.459173,1.367333,-5.506444)"
   style="font-size:12;fill:none;fill-rule:evenodd;stroke:#ff0000;stroke-width:1.7133;"
   id="path1086" /><path
   d="M 98.9375 117.875 C 97.25 133.75 93.1875 143.9375 89.125 144.25 "
   transform="matrix(1.459173,0,0,1.459173,1.367333,-5.506444)"
   style="font-size:12;fill:none;fill-rule:evenodd;stroke:#ff0000;stroke-width:1.7133;"
   id="path1088" /><path
   d="M 70 87.5 C 69.75 66.81251 68.1875 51.5 65.5625 51.4375 "
   transform="matrix(1.459173,0,0,1.459173,1.367333,-5.506444)"
   style="font-size:12;fill:none;fill-rule:evenodd;stroke:#ff0000;stroke-width:1.7133;"
   id="path1091" /><path
   d="M 75.375 51.4375 C 77.875 51.5 79.375 64.93751 79.6875 84.0625 "
   transform="matrix(1.459173,0,0,1.459173,1.367333,-5.506444)"
   style="font-size:12;fill:none;fill-rule:evenodd;stroke:#ff0000;stroke-width:1.7133;"
   id="path1092" /><path
   d="M 89.4375 82.8125 C 89.125 64.31251 87.625 51.5 85.1875 51.4375 "
   transform="matrix(1.459173,0,0,1.459173,1.367333,-5.506444)"
   style="font-size:12;fill:none;fill-rule:evenodd;stroke:#ff0000;stroke-width:1.7133;"
   id="path1095" /><path
   d="M 95 51.4375 C 97.375 51.5 98.9375 64.1875 99.25 82.5625 "
   transform="matrix(1.459173,0,0,1.459173,1.367333,-5.506444)"
   style="font-size:12;fill:none;fill-rule:evenodd;stroke:#ff0000;stroke-width:1.7133;"
   id="path1096" /><path
   d="M 104.8125 51.4375 C 107.25 51.5 108.8125 64.6875 109.125 83.5625 "
   transform="matrix(1.459173,0,0,1.459173,1.367333,-5.506444)"
   style="font-size:12;fill:none;fill-rule:evenodd;stroke:#ff0000;stroke-width:1.7133;"
   id="path1098" /><path
   d="M 114.625 51.4375 C 117.25 51.5 118.8125 66.3125 119 86.6875 "
   transform="matrix(1.459173,0,0,1.459173,1.367333,-5.506444)"
   style="font-size:12;fill:none;fill-rule:evenodd;stroke:#ff0000;stroke-width:1.7133;"
   id="path1100" /><path
   d="M 124.4375 51.4375 C 127.375 51.5 129 70.5 129.0625 93.875 "
   transform="matrix(1.459173,0,0,1.459173,1.367333,-5.506444)"
   style="font-size:12;fill:none;fill-rule:evenodd;stroke:#ff0000;stroke-width:1.7133;"
   id="path1102" /><path
   d="M 79.375 116.3125 C 77.8125 133.1875 73.6875 143.9375 69.5 144.25 "
   transform="matrix(1.459173,0,0,1.459173,1.367333,-5.506444)"
   style="font-size:12;fill:none;fill-rule:evenodd;stroke:#ff0000;stroke-width:1.7133;"
   id="path1105" /><path
   d="M 55.75 51.4375 C 58.8125 51.5 60.4375 71.875 60.5 96.0625 "
   transform="matrix(1.459173,0,0,1.459173,1.367333,-5.506444)"
   style="font-size:12;fill:none;fill-rule:evenodd;stroke:#ff0000;stroke-width:1.7133;"
   id="path1107" /><path
   d="M 111.2765 145.7709 L 168.2376 145.7709 "
   style="font-size:12;fill:none;fill-rule:evenodd;stroke:#0000ff;stroke-width:2.499999;"
   id="path1176" /><path
   d="M 174.6877 145.7708 L 167.9396 139.0227 L 167.9396 152.519 L 174.6877 145.7708 L 174.6877 145.7708 z "
   style="font-size:12;fill:#0000ff;fill-rule:evenodd;stroke:#0000ff;stroke-width:1;"
   id="path1178" /><path
   d="M 12.07939 208.4403 L 21.31631 210.8388 L 14.47786 199.2033 L 12.07939 208.4403 L 12.07939 208.4403 z "
   style="font-size:12;fill:#ff0000;fill-rule:evenodd;stroke:#ff0000;stroke-width:1;"
   id="path1183" /><path
   d="M 21.11272 59.64452 L 245.6238 60.32966 "
   style="font-size:12;fill:none;fill-rule:evenodd;stroke:#000000;stroke-width:2.5;"
   id="path1190" /><path
   d="M 15.05403 59.92611 L 21.80213 53.17802 L 21.80213 66.67425 L 15.05403 59.92611 L 15.05403 59.92611 z "
   style="font-size:12;fill-rule:evenodd;stroke:#000000;stroke-width:1;"
   id="path1191" /><path
   d="M 251.9023 59.92611 L 245.1542 53.17802 L 245.1542 66.67425 L 251.9023 59.92611 L 251.9023 59.92611 z "
   style="font-size:12;fill-rule:evenodd;stroke:#000000;stroke-width:1;"
   id="path1192" /><path
   d="M 133.7497 42.21389 C 134.4146 40.68816 135.1433 39.62949 135.9353 39.03789 C 136.7275 38.44626 137.8081 38.15045 139.1775 38.15045 C 140.7521 38.15045 142.0821 38.71775 143.1675 39.85236 C 144.253 40.98694 144.7958 42.45911 144.7958 44.26882 C 144.7958 46.05883 144.2677 47.53342 143.2114 48.69257 C 142.1551 49.85171 140.9768 50.43129 139.6763 50.43129 C 138.7079 50.43129 137.8081 50.07551 136.9771 49.36395 C 136.4294 48.89604 135.6813 47.85777 134.7326 46.24917 C 134.1069 47.46649 133.4223 48.34273 132.6789 48.87789 C 131.9356 49.41304 131.036 49.68063 129.9801 49.68063 C 128.5716 49.68063 127.3809 49.17495 126.4077 48.16359 C 125.4347 47.15223 124.9483 45.84646 124.9483 44.2463 C 124.9483 42.62612 125.398 41.3202 126.2978 40.32854 C 127.1974 39.3369 128.2489 38.84106 129.4518 38.84106 C 130.2928 38.84106 131.036 39.05954 131.6814 39.49649 C 132.3268 39.93343 133.0162 40.83923 133.7497 42.21389 z M 135.1581 45.2034 C 135.8913 46.73631 136.6146 47.76566 137.328 48.29144 C 138.0415 48.81722 138.843 49.0801 139.7325 49.0801 C 140.9349 49.0801 141.9391 48.64588 142.7455 47.77747 C 143.5519 46.90905 143.9551 45.74372 143.9551 44.2815 C 143.9551 42.83898 143.5299 41.64667 142.6796 40.70459 C 141.8294 39.76251 140.8763 39.29146 139.8207 39.29146 C 139.1461 39.29146 138.5571 39.46278 138.0538 39.80543 C 137.5506 40.14808 137.0937 40.6963 136.683 41.45008 C 136.4484 41.89047 135.9401 43.14158 135.1581 45.2034 z M 133.3242 43.34786 C 132.8473 42.26659 132.3021 41.47033 131.6887 40.9591 C 131.0754 40.44788 130.3209 40.19226 129.4251 40.19226 C 128.3932 40.19226 127.5292 40.55851 126.8331 41.29104 C 126.137 42.02356 125.789 43.00427 125.789 44.23317 C 125.789 45.54088 126.1322 46.58555 126.8186 47.36719 C 127.5049 48.14881 128.2814 48.53962 129.1477 48.53962 C 130.0726 48.53962 130.8904 48.12175 131.601 47.28602 C 132.0586 46.73521 132.6331 45.42251 133.3242 43.34786 z "
   style="font-size:18;font-weight:normal;font-family:Times New Roman;"
   id="path1205" /><path
   d="M 25.09045 211.3602 C 25.47283 211.3602 25.79826 211.4944 26.06673 211.7629 C 26.33521 212.0314 26.46945 212.3568 26.46945 212.7392 C 26.46945 213.1215 26.33521 213.4493 26.06673 213.7224 C 25.79826 213.9956 25.47283 214.1322 25.09045 214.1322 C 24.70808 214.1322 24.38032 213.9956 24.10717 213.7224 C 23.83403 213.4493 23.69745 213.1215 23.69745 212.7392 C 23.69745 212.3568 23.83169 212.0314 24.10017 211.7629 C 24.36865 211.4944 24.69874 211.3602 25.09045 211.3602 z M 26.21745 217.9122 L 26.21745 227.9922 C 26.21745 228.7715 26.27455 229.2902 26.38873 229.5483 C 26.50292 229.8065 26.67187 229.999 26.89558 230.1258 C 27.11929 230.2527 27.52791 230.3162 28.12145 230.3162 L 28.12145 230.8202 L 22.04545 230.8202 L 22.04545 230.3162 C 22.65299 230.3162 23.06104 230.2572 23.26958 230.1394 C 23.47812 230.0216 23.64357 229.8267 23.76592 229.5549 C 23.88828 229.2831 23.94945 228.7622 23.94945 227.9922 L 23.94945 223.1482 C 23.94945 221.7989 23.90847 220.9251 23.82652 220.5267 C 23.76293 220.2367 23.66296 220.035 23.52661 219.9214 C 23.39025 219.8078 23.20395 219.751 22.9677 219.751 C 22.71308 219.751 22.40391 219.8194 22.0402 219.9562 L 21.84945 219.4522 L 25.61677 217.9122 L 26.21745 217.9122 z "
   style="font-size:28;font-weight:normal;fill:#ff0000;font-family:Times New Roman;"
   id="path895" /><path
   d="M 147.5018 132.756 C 148.7863 133.0302 149.7474 133.4687 150.385 134.0716 C 151.2684 134.9122 151.7101 135.94 151.7101 137.1551 C 151.7101 138.0779 151.4188 138.9619 150.8362 139.807 C 150.2536 140.6521 149.4548 141.2688 148.4396 141.6572 C 147.4245 142.0455 145.8745 142.2397 143.7896 142.2397 L 135.0501 142.2397 L 135.0501 141.7357 L 135.7423 141.7357 C 136.5114 141.7357 137.0634 141.49 137.3982 140.9985 C 137.6062 140.6797 137.7101 140.0015 137.7101 138.9637 L 137.7101 126.9517 C 137.7101 125.8046 137.5789 125.0808 137.3164 124.7804 C 136.9638 124.3799 136.4391 124.1797 135.7423 124.1797 L 135.0501 124.1797 L 135.0501 123.6757 L 143.0485 123.6757 C 144.5407 123.6757 145.7372 123.7851 146.6382 124.0038 C 148.0032 124.332 149.0451 124.9132 149.7639 125.7475 C 150.4827 126.5818 150.8421 127.5413 150.8421 128.626 C 150.8421 129.5559 150.5604 130.3878 149.9969 131.1217 C 149.4334 131.8557 148.6017 132.4005 147.5018 132.756 z M 140.3421 131.997 C 140.6793 132.0605 141.0642 132.1082 141.4967 132.14 C 141.9292 132.1718 142.4052 132.1877 142.9247 132.1877 C 144.2544 132.1877 145.254 132.0447 145.9235 131.7585 C 146.5931 131.4724 147.1042 131.0342 147.457 130.4438 C 147.8098 129.8535 147.9861 129.2088 147.9861 128.5097 C 147.9861 127.4287 147.5448 126.5069 146.662 125.744 C 145.7793 124.9811 144.4917 124.5997 142.7991 124.5997 C 141.8891 124.5997 141.0701 124.6996 140.3421 124.8994 L 140.3421 131.997 z M 140.3421 140.8905 C 141.4032 141.1366 142.4505 141.2597 143.4838 141.2597 C 145.1396 141.2597 146.402 140.8884 147.2708 140.1456 C 148.1397 139.4029 148.5741 138.4848 148.5741 137.3913 C 148.5741 136.6715 148.3727 135.9789 147.9697 135.3137 C 147.5668 134.6484 146.9235 134.1244 146.0399 133.7417 C 145.1563 133.359 144.0632 133.1677 142.7606 133.1677 C 142.196 133.1677 141.7132 133.1768 141.3123 133.1951 C 140.9114 133.2133 140.588 133.2452 140.3421 133.2907 L 140.3421 140.8905 z "
   style="font-size:28;font-weight:normal;fill:#0000ff;font-family:Times New Roman;"
   id="path896" /></svg>
