<?xml version="1.0" encoding="UTF-8" standalone="no"?>
<!DOCTYPE svg PUBLIC "-//W3C//DTD SVG 1.0//EN"
"http://www.w3.org/TR/2001/REC-SVG-20010904/DTD/svg10.dtd">
<!-- Created with Sodipodi ("http://www.sodipodi.com/") -->
<svg
   xmlns="http://www.w3.org/2000/svg"
   xmlns:xlink="http://www.w3.org/1999/xlink"
   version="1.0"
   x="0"
   y="0"
   width="360"
   height="270"
   id="svg1377"
   xml:space="preserve"><defs
   id="defs1379" /><rect
   width="123.230576"
   height="61.6426773"
   x="89.7105179"
   y="144.63269"
   style="font-size:12;fill:#b30000;fill-opacity:0.2051;fill-rule:evenodd;"
   id="rect1486" /><rect
   width="61.6820984"
   height="66.7844162"
   x="61.2761459"
   y="11.6003819"
   transform="matrix(0.735385,0,0,0.798644,4.296423,9.548887)"
   style="font-size:12;fill:#ff0000;fill-rule:evenodd;"
   id="rect1382" /><ellipse
   cx="124.206581"
   cy="48.7375259"
   rx="28.7110672"
   ry="34.0163803"
   transform="matrix(0.445453,0,0,0.78492,38.81199,7.254099)"
   style="font-size:12;fill:#bd0000;fill-rule:evenodd;stroke-width:8.6916;"
   id="path1383" /><ellipse
   cx="124.206581"
   cy="48.7375259"
   rx="28.7110672"
   ry="34.0163803"
   transform="matrix(0.510641,0,0,0.757377,-13.63775,8.596384)"
   style="font-size:12;fill:#ff0000;fill-rule:evenodd;stroke:#ff0000;stroke-width:2.5463;"
   id="path1391" /><path
   d="M 8.191113 176.5249 L 248.6244 176.5249 "
   style="font-size:12;fill:none;fill-rule:evenodd;stroke:#000000;stroke-width:2.5;stroke-dasharray:2.5 5 ;stroke-dashoffset:0;stroke-opacity:0.5043;"
   id="path1412" /><path
   d="M 316.5624 176.5249 L 354.1452 176.0431 "
   style="font-size:12;fill:none;fill-rule:evenodd;stroke:#000000;stroke-width:2.5;stroke-dasharray:2.5 5 ;stroke-dashoffset:0;stroke-opacity:0.5043;"
   id="path1413" /><path
   d="M 40.76745 176.0431 L 40.76745 123.9363 "
   style="font-size:12;fill:none;fill-rule:evenodd;stroke:#000000;stroke-width:2.5;"
   id="path1416" /><path
   d="M 90.69742 103.5569 L 210.4599 103.5952 "
   style="font-size:12;fill:none;fill-rule:evenodd;stroke:#000000;stroke-width:2.5;stroke-linecap:round;"
   id="path1427" /><path
   d="M 31.99775 131.3431 L 40.77677 122.5641 L 49.5558 131.0849 "
   style="font-size:12;fill:none;fill-rule:evenodd;stroke:#000000;stroke-width:2.5;"
   id="path1432" /><path
   d="M 99.38984 112.2641 L 90.61085 103.4851 L 99.13164 94.70598 "
   style="font-size:12;fill:none;fill-rule:evenodd;stroke:#000000;stroke-width:2.499998;"
   id="path1433" /><path
   d="M 202.6921 94.93593 L 211.4711 103.7149 L 202.9503 112.494 "
   style="font-size:12;fill:none;fill-rule:evenodd;stroke:#000000;stroke-width:2.499999;"
   id="path1434" /><path
   d="M 244.9674 176.3059 L 313.79 175.9652 "
   style="font-size:12;fill:none;fill-rule:evenodd;stroke:#0000ff;stroke-width:2.5;"
   id="path1442" /><path
   d="M 305.494 167.0323 L 314.273 175.8112 L 305.7522 184.5902 "
   style="font-size:12;fill:none;fill-rule:evenodd;stroke:#0000ff;stroke-width:2.499999;"
   id="path1443" /><ellipse
   cx="258.084595"
   cy="185.334625"
   rx="3.23670197"
   ry="3.23670959"
   transform="translate(-11.9247,-8.858341)"
   style="font-size:12;fill:#0000ff;fill-rule:evenodd;"
   id="path1444" /><path
   d="M 37.40028 183.3331 L 37.40028 186.1606 C 38.44095 184.2756 39.50888 183.3331 40.60409 183.3331 C 41.10197 183.3331 41.5138 183.4863 41.83959 183.7929 C 42.16538 184.0994 42.32828 184.4539 42.32828 184.8564 C 42.32828 185.2134 42.21103 185.5155 41.97653 185.7625 C 41.74203 186.0095 41.46247 186.1331 41.13784 186.1331 C 40.82226 186.1331 40.46723 185.9744 40.07275 185.6571 C 39.67827 185.3397 39.3858 185.1811 39.19534 185.1811 C 39.0323 185.1811 38.85555 185.2726 38.66509 185.4558 C 38.25705 185.8312 37.83545 186.4491 37.40028 187.3095 L 37.40028 193.3011 C 37.40028 193.9987 37.48676 194.5265 37.65972 194.8844 C 37.77784 195.1323 37.98711 195.3364 38.28753 195.4967 C 38.58795 195.6569 39.0202 195.7371 39.58428 195.7371 L 39.58428 196.2411 L 33.17228 196.2411 L 33.17228 195.7371 C 33.80753 195.7371 34.27945 195.6369 34.58803 195.4365 C 34.81465 195.2907 34.97332 195.0582 35.06403 194.7391 C 35.10953 194.5842 35.13228 194.1422 35.13228 193.4131 L 35.13228 188.5691 C 35.13228 187.1139 35.10275 186.2477 35.04369 185.9703 C 34.98462 185.6929 34.87554 185.4905 34.71644 185.3631 C 34.55733 185.2356 34.35965 185.1719 34.1234 185.1719 C 33.84136 185.1719 33.52315 185.2403 33.16878 185.3771 L 33.03228 184.8731 L 36.82497 183.3331 L 37.40028 183.3331 z "
   transform="translate(0,-2.199597)"
   style="font-size:28;font-weight:normal;font-family:Times New Roman;"
   id="path1479" /><path
   d="M 293.1473 159.5433 C 294.4318 159.8175 295.3928 160.256 296.0304 160.8589 C 296.9139 161.6995 297.3556 162.7273 297.3556 163.9424 C 297.3556 164.8652 297.0643 165.7492 296.4817 166.5943 C 295.8991 167.4394 295.1002 168.0561 294.0851 168.4445 C 293.0699 168.8328 291.5199 169.027 289.4351 169.027 L 280.6956 169.027 L 280.6956 168.523 L 281.3877 168.523 C 282.1569 168.523 282.7088 168.2773 283.0437 167.7858 C 283.2516 167.467 283.3556 166.7887 283.3556 165.751 L 283.3556 153.739 C 283.3556 152.5919 283.2244 151.8681 282.9619 151.5677 C 282.6092 151.1672 282.0845 150.967 281.3877 150.967 L 280.6956 150.967 L 280.6956 150.463 L 288.694 150.463 C 290.1861 150.463 291.3827 150.5724 292.2837 150.7911 C 293.6487 151.1192 294.6906 151.7005 295.4094 152.5348 C 296.1282 153.3691 296.4876 154.3286 296.4876 155.4133 C 296.4876 156.3431 296.2059 157.175 295.6424 157.909 C 295.0789 158.643 294.2472 159.1878 293.1473 159.5433 z M 285.9876 158.7842 C 286.3248 158.8478 286.7096 158.8955 287.1422 158.9273 C 287.5747 158.9591 288.0507 158.975 288.5702 158.975 C 289.8999 158.975 290.8995 158.8319 291.569 158.5458 C 292.2385 158.2597 292.7497 157.8215 293.1024 157.2311 C 293.4552 156.6408 293.6316 155.9961 293.6316 155.2969 C 293.6316 154.216 293.1902 153.2941 292.3075 152.5313 C 291.4248 151.7684 290.1371 151.387 288.4446 151.387 C 287.5346 151.387 286.7156 151.4869 285.9876 151.6867 L 285.9876 158.7842 z M 285.9876 167.6777 C 287.0487 167.9239 288.0959 168.047 289.1293 168.047 C 290.7851 168.047 292.0474 167.6756 292.9163 166.9329 C 293.7852 166.1902 294.2196 165.2721 294.2196 164.1786 C 294.2196 163.4588 294.0181 162.7662 293.6152 162.1009 C 293.2123 161.4356 292.569 160.9117 291.6854 160.529 C 290.8018 160.1463 289.7087 159.955 288.4061 159.955 C 287.8414 159.955 287.3587 159.9641 286.9578 159.9823 C 286.5569 160.0006 286.2335 160.0324 285.9876 160.0779 L 285.9876 167.6777 z "
   style="font-size:28;font-weight:normal;fill:#0000ff;font-family:Times New Roman;"
   id="path1481" /><path
   d="M 89.84196 189.6107 L 242.3789 189.4619 "
   transform="translate(0,-32.09219)"
   style="font-size:12;fill:none;fill-rule:evenodd;stroke:#000000;stroke-width:2.5;"
   id="path1420" /><path
   d="M 234.9679 180.6605 L 243.7469 189.4394 L 235.2261 198.2185 "
   transform="translate(0,-32.09219)"
   style="font-size:12;fill:none;fill-rule:evenodd;stroke:#000000;stroke-width:2.499999;"
   id="path1435" /><g
   transform="translate(0,-18.77692)"
   style="font-size:12;"
   id="g1463"><path
   d="M 212.8839 215.0871 L 242.3789 215.087 "
   style="fill:none;fill-rule:evenodd;stroke:#000000;stroke-width:2.5;"
   id="path1425" /><path
   d="M 234.9679 206.2229 L 243.7469 215.0018 L 235.2261 223.7809 "
   style="fill:none;fill-rule:evenodd;stroke:#000000;stroke-width:2.499999;"
   id="path1436" /></g><path
   d="M 256.1198 231.7507 L 255.2364 234.2018 L 247.7975 234.2018 L 247.7975 233.8518 C 249.986 231.8574 251.5266 230.2283 252.4193 228.9648 C 253.312 227.7012 253.7583 226.5456 253.7583 225.498 C 253.7583 224.6987 253.5134 224.042 253.0235 223.5276 C 252.5336 223.0134 251.9476 222.7562 251.2656 222.7562 C 250.6457 222.7562 250.0893 222.9354 249.5963 223.2939 C 249.1033 223.6524 248.739 224.1778 248.5033 224.8701 L 248.1593 224.8701 C 248.3145 223.7294 248.7134 222.8539 249.356 222.2435 C 249.9987 221.6331 250.8011 221.3279 251.7634 221.3279 C 252.7879 221.3279 253.643 221.6568 254.329 222.3146 C 255.015 222.9724 255.358 223.7481 255.358 224.6416 C 255.358 225.2808 255.2092 225.9195 254.9114 226.5579 C 254.4526 227.5623 253.7083 228.6255 252.6785 229.7475 C 251.1341 231.4323 250.1796 232.441 249.815 232.7735 L 253.0766 232.7735 C 253.7402 232.7735 254.2055 232.7487 254.4726 232.6991 C 254.7398 232.6495 254.9808 232.5487 255.1959 232.3969 C 255.4109 232.2451 255.5983 232.0297 255.758 231.7507 L 256.1198 231.7507 z "
   transform="translate(0,-86.101)"
   style="font-size:28;font-weight:normal;font-family:Times New Roman;"
   id="path1469" /><path
   d="M 249.6747 222.8216 L 252.7548 221.3367 L 253.0633 221.3367 L 253.0633 231.9786 C 253.0633 232.6877 253.093 233.1294 253.1521 233.3035 C 253.2113 233.4775 253.3345 233.6113 253.5216 233.7046 C 253.7087 233.7979 254.089 233.8508 254.6625 233.8633 L 254.6625 234.2059 L 249.9031 234.2059 L 249.9031 233.8633 C 250.4982 233.8508 250.8826 233.7995 251.0562 233.7093 C 251.2299 233.6192 251.3508 233.4979 251.419 233.3456 C 251.4872 233.1931 251.5213 232.7375 251.5213 231.9786 L 251.5213 225.1632 C 251.5213 224.2452 251.4902 223.6561 251.4279 223.3957 C 251.3845 223.1972 251.3053 223.0515 251.1903 222.9585 C 251.0752 222.8654 250.9369 222.8189 250.7753 222.8189 C 250.5452 222.8189 250.225 222.915 249.8145 223.1071 L 249.6747 222.8216 z "
   style="font-size:28;font-weight:normal;font-family:Times New Roman;"
   id="path1475" /><path
   d="M 60.16375 19.11927 C 48.37069 21.74428 45.13338 35.49428 45.36461 48.30678 C 45.19119 52.86927 46.00051 58.99426 48.13945 64.36927 L 41.74271 64.79855 L 66.11893 70.80865 L 83.74508 64.36929 L 78.1424 64.36927 C 76.11908 58.86927 75.42537 52.61927 75.42537 47.86927 C 75.42537 38.24427 77.96897 21.24427 89.35736 18.86927 L 60.16375 19.11927 L 60.16375 19.11927 L 60.16375 19.11927 z "
   style="font-size:12;fill-opacity:0.5;fill-rule:evenodd;"
   id="path641" /><path
   d="M 54.46545 17.5938 C 42.88504 19.97801 39.7061 32.46669 39.93317 44.10387 C 39.76287 48.24783 40.5576 53.81096 42.65797 58.6929 L 36.37658 59.08281 L 60.31324 64.54159 L 77.62154 58.69292 L 72.11989 58.6929 C 70.13306 53.69743 69.45186 48.02076 69.45186 43.70649 C 69.45186 34.96441 71.94959 19.52386 83.13264 17.36673 L 54.46545 17.5938 L 54.46545 17.5938 L 54.46545 17.5938 z "
   style="font-size:12;fill:#ff0000;fill-rule:evenodd;stroke:#000000;stroke-width:1.248868;"
   id="path643" /><path
   d="M 55.82833 27.47053 C 56.2107 27.47053 56.53613 27.60477 56.80461 27.87325 C 57.07309 28.14173 57.20733 28.46716 57.20733 28.84953 C 57.20733 29.23191 57.07309 29.55967 56.80461 29.83282 C 56.53613 30.10596 56.2107 30.24253 55.82833 30.24253 C 55.44595 30.24253 55.11819 30.10596 54.84505 29.83282 C 54.5719 29.55967 54.43533 29.23191 54.43533 28.84953 C 54.43533 28.46716 54.56957 28.14173 54.83805 27.87325 C 55.10653 27.60477 55.43662 27.47053 55.82833 27.47053 z M 56.95533 34.02253 L 56.95533 44.10253 C 56.95533 44.88187 57.01242 45.4006 57.12661 45.65872 C 57.2408 45.91685 57.40975 46.10935 57.63345 46.23622 C 57.85716 46.3631 58.26579 46.42653 58.85933 46.42653 L 58.85933 46.93053 L 52.78333 46.93053 L 52.78333 46.42653 C 53.39087 46.42653 53.79891 46.36762 54.00745 46.24978 C 54.216 46.13195 54.38144 45.93712 54.5038 45.66528 C 54.62615 45.39345 54.68733 44.87253 54.68733 44.10253 L 54.68733 39.25853 C 54.68733 37.90928 54.64635 37.03545 54.56439 36.63703 C 54.50081 36.34712 54.40084 36.14536 54.26449 36.03175 C 54.12813 35.91815 53.94183 35.86135 53.70558 35.86135 C 53.45095 35.86135 53.14179 35.92974 52.77808 36.06653 L 52.58733 35.56253 L 56.35464 34.02253 L 56.95533 34.02253 z "
   style="font-size:28;font-weight:normal;font-family:Times New Roman;"
   id="path661" /><path
   d="M 151.0225 77.87493 L 151.0225 94.50693 C 151.0225 95.28627 151.0792 95.80273 151.1927 96.05634 C 151.3061 96.30994 151.4809 96.50244 151.717 96.63384 C 151.9531 96.76523 152.3936 96.83093 153.0385 96.83093 L 153.0385 97.33492 L 146.9065 97.33492 L 146.9065 96.83093 C 147.4814 96.83093 147.8737 96.77202 148.0836 96.65418 C 148.2934 96.53635 148.4577 96.34152 148.5764 96.06968 C 148.6951 95.79785 148.7545 95.27693 148.7545 94.50693 L 148.7545 83.11093 C 148.7545 81.71326 148.7227 80.85438 148.6591 80.53428 C 148.5955 80.21417 148.4933 79.99513 148.3524 79.87715 C 148.2116 79.75917 148.032 79.70018 147.8139 79.70018 C 147.5776 79.70018 147.2778 79.7731 146.9144 79.91893 L 146.6825 79.41493 L 150.4082 77.87493 L 151.0225 77.87493 z "
   style="font-size:28;font-weight:normal;font-family:Times New Roman;"
   id="path1480" /><path
   d="M 235.093 215.0871 L 240.945 215.0871 L 240.945 215.5911 C 240.5725 215.5911 240.3114 215.656 240.1616 215.7858 C 240.0119 215.9156 239.937 216.0871 239.937 216.3003 C 239.937 216.5228 240.1016 216.8658 240.4309 217.3293 C 240.5321 217.4736 240.6841 217.6994 240.8868 218.0065 L 241.7951 219.4398 L 242.8262 218.0087 C 243.4904 217.1168 243.8246 216.5477 243.829 216.3016 C 243.829 216.1027 243.7513 215.9345 243.596 215.7971 C 243.4407 215.6598 243.1895 215.5911 242.8424 215.5911 L 242.8424 215.0871 L 247.049 215.0871 L 247.049 215.5911 C 246.5984 215.6185 246.2077 215.7413 245.8769 215.9595 C 245.4263 216.2683 244.8167 216.9411 244.0482 217.9776 L 242.3336 220.2531 L 245.453 224.7821 C 246.2186 225.8887 246.7655 226.554 247.0936 226.778 C 247.4217 227.002 247.8455 227.1277 248.365 227.1551 L 248.365 227.6311 L 242.4443 227.6311 L 242.4443 227.1551 C 242.8544 227.1551 243.1733 227.0632 243.4011 226.8795 C 243.5744 226.7508 243.661 226.5809 243.661 226.3698 C 243.661 226.1586 243.3674 225.626 242.7803 224.772 L 240.9454 222.095 L 238.9338 224.765 C 238.3333 225.6033 238.033 226.1006 238.033 226.2569 C 238.033 226.478 238.1357 226.6784 238.341 226.858 C 238.5463 227.0377 238.8543 227.1367 239.265 227.1551 L 239.265 227.6311 L 235.177 227.6311 L 235.177 227.1551 C 235.5042 227.1093 235.7905 226.995 236.0358 226.8121 C 236.3811 226.547 236.9629 225.8703 237.781 224.7821 L 240.3916 221.2773 L 238.033 217.8271 C 237.3616 216.8396 236.8421 216.22 236.4746 215.9684 C 236.1071 215.7169 235.6466 215.5911 235.093 215.5911 L 235.093 215.0871 z "
   style="font-size:28;font-weight:normal;font-family:Times New Roman;"
   id="path669" /><path
   d="M 232.1342 129.2427 L 237.9862 129.2427 L 237.9862 129.7467 C 237.6138 129.7467 237.3526 129.8116 237.2029 129.9414 C 237.0531 130.0711 236.9782 130.2426 236.9782 130.4559 C 236.9782 130.6784 237.1429 131.0214 237.4722 131.4849 C 237.5734 131.6292 237.7253 131.855 237.928 132.1621 L 238.8363 133.5954 L 239.8675 132.1643 C 240.5316 131.2724 240.8658 130.7033 240.8702 130.4572 C 240.8702 130.2582 240.7926 130.0901 240.6372 129.9527 C 240.4819 129.8154 240.2307 129.7467 239.8837 129.7467 L 239.8837 129.2427 L 244.0902 129.2427 L 244.0902 129.7467 C 243.6396 129.7741 243.2489 129.8969 242.9182 130.115 C 242.4675 130.4239 241.8579 131.0966 241.0894 132.1332 L 239.3748 134.4087 L 242.4942 138.9377 C 243.2598 140.0443 243.8067 140.7095 244.1348 140.9335 C 244.463 141.1575 244.8868 141.2833 245.4062 141.3107 L 245.4062 141.7867 L 239.4855 141.7867 L 239.4855 141.3107 C 239.8956 141.3107 240.2146 141.2188 240.4423 141.035 C 240.6156 140.9064 240.7022 140.7365 240.7022 140.5254 C 240.7022 140.3142 240.4087 139.7816 239.8215 138.9276 L 237.9867 136.2505 L 235.975 138.9206 C 235.3745 139.7589 235.0742 140.2561 235.0742 140.4125 C 235.0742 140.6336 235.1769 140.8339 235.3822 141.0136 C 235.5876 141.1933 235.8956 141.2923 236.3062 141.3107 L 236.3062 141.7867 L 232.2182 141.7867 L 232.2182 141.3107 C 232.5455 141.2649 232.8317 141.1505 233.077 140.9677 C 233.4224 140.7025 234.0041 140.0259 234.8222 138.9377 L 237.4328 135.4329 L 235.0742 131.9827 C 234.4028 130.9951 233.8833 130.3756 233.5158 130.124 C 233.1483 129.8724 232.6878 129.7467 232.1342 129.7467 L 232.1342 129.2427 z "
   style="font-size:28;font-weight:normal;font-family:Times New Roman;"
   id="path668" /><path
   d="M 90.74495 207.4353 L 90.74495 230.486 L 211.909 230.1851 L 211.909 207.1344 L 90.74495 207.4353 L 90.74495 207.4353 z "
   style="font-size:12;fill:none;fill-rule:evenodd;stroke:#ff0000;stroke-width:1.875;"
   id="path748" /><g
   transform="translate(16.24803,-4.768372e-6)"
   style="font-size:12;"
   id="g717"><path
   d="M 76.12505 207.415 L 98.39088 229.9817 "
   style="fill:none;fill-rule:evenodd;stroke:#ff0000;stroke-width:1.875;"
   id="path715" /><path
   d="M 75.97462 229.8313 L 98.54132 207.5654 "
   style="fill:none;fill-rule:evenodd;stroke:#ff0000;stroke-width:1.875;"
   id="path716" /></g><g
   transform="translate(111.3291,-9.536744e-6)"
   style="font-size:12;"
   id="g720"><path
   d="M 76.12505 207.415 L 98.39088 229.9817 "
   style="fill:none;fill-rule:evenodd;stroke:#ff0000;stroke-width:1.875;"
   id="path721" /><path
   d="M 75.97462 229.8313 L 98.54132 207.5654 "
   style="fill:none;fill-rule:evenodd;stroke:#ff0000;stroke-width:1.875;"
   id="path722" /></g><g
   transform="translate(87.85973,-9.536744e-6)"
   style="font-size:12;"
   id="g723"><path
   d="M 76.12505 207.415 L 98.39088 229.9817 "
   style="fill:none;fill-rule:evenodd;stroke:#ff0000;stroke-width:1.875;"
   id="path724" /><path
   d="M 75.97462 229.8313 L 98.54132 207.5654 "
   style="fill:none;fill-rule:evenodd;stroke:#ff0000;stroke-width:1.875;"
   id="path725" /></g><g
   transform="translate(64.08946,-9.536744e-6)"
   style="font-size:12;"
   id="g726"><path
   d="M 76.12505 207.415 L 98.39088 229.9817 "
   style="fill:none;fill-rule:evenodd;stroke:#ff0000;stroke-width:1.875;"
   id="path727" /><path
   d="M 75.97462 229.8313 L 98.54132 207.5654 "
   style="fill:none;fill-rule:evenodd;stroke:#ff0000;stroke-width:1.875;"
   id="path728" /></g><g
   transform="translate(40.01829,-9.536744e-6)"
   style="font-size:12;"
   id="g729"><path
   d="M 76.12505 207.415 L 98.39088 229.9817 "
   style="fill:none;fill-rule:evenodd;stroke:#ff0000;stroke-width:1.875;"
   id="path730" /><path
   d="M 75.97462 229.8313 L 98.54132 207.5654 "
   style="fill:none;fill-rule:evenodd;stroke:#ff0000;stroke-width:1.875;"
   id="path731" /></g><path
   d="M 90.74494 121.08 L 90.74494 144.1307 L 211.909 143.8298 L 211.909 120.7791 L 90.74494 121.08 L 90.74494 121.08 z "
   style="font-size:12;fill:none;fill-rule:evenodd;stroke:#ff0000;stroke-width:1.875;"
   id="path749" /><ellipse
   cx="104.408676"
   cy="220.052338"
   rx="3.91156006"
   ry="3.91156006"
   transform="translate(-1.203565,-87.85975)"
   style="font-size:12;fill:#ff0000;fill-rule:evenodd;"
   id="path751" /><ellipse
   cx="104.408676"
   cy="220.052338"
   rx="3.91156006"
   ry="3.91156006"
   transform="translate(94.17841,-87.85975)"
   style="font-size:12;fill:#ff0000;fill-rule:evenodd;"
   id="path752" /><ellipse
   cx="104.408676"
   cy="220.052338"
   rx="3.91156006"
   ry="3.91156006"
   transform="translate(70.70902,-87.85975)"
   style="font-size:12;fill:#ff0000;fill-rule:evenodd;"
   id="path753" /><ellipse
   cx="104.408676"
   cy="220.052338"
   rx="3.91156006"
   ry="3.91156006"
   transform="translate(46.63786,-87.85975)"
   style="font-size:12;fill:#ff0000;fill-rule:evenodd;"
   id="path754" /><ellipse
   cx="104.408676"
   cy="220.052338"
   rx="3.91156006"
   ry="3.91156006"
   transform="translate(22.56671,-87.85975)"
   style="font-size:12;fill:#ff0000;fill-rule:evenodd;"
   id="path755" /><path
   d="M 73.14794 176.0431 L 73.14794 147.3985 "
   style="font-size:12;fill:none;fill-rule:evenodd;stroke:#000000;stroke-width:2.5;"
   id="path762" /><path
   d="M 64.37824 155.7829 L 73.15726 147.0039 L 81.93629 155.5247 "
   style="font-size:12;fill:none;fill-rule:evenodd;stroke:#000000;stroke-width:2.5;"
   id="path763" /><path
   d="M 72.71355 181.1335 L 72.71355 183.961 C 73.75422 182.076 74.82215 181.1335 75.91736 181.1335 C 76.41524 181.1335 76.82706 181.2867 77.15285 181.5933 C 77.47864 181.8998 77.64154 182.2543 77.64154 182.6568 C 77.64154 183.0138 77.52429 183.3159 77.28979 183.5629 C 77.05529 183.8099 76.77573 183.9335 76.45111 183.9335 C 76.13553 183.9335 75.7805 183.7748 75.38602 183.4575 C 74.99154 183.1401 74.69907 182.9815 74.50861 182.9815 C 74.34557 182.9815 74.16882 183.073 73.97836 183.2562 C 73.57032 183.6316 73.14872 184.2495 72.71355 185.1099 L 72.71355 191.1015 C 72.71355 191.7991 72.80003 192.3269 72.97299 192.6848 C 73.09111 192.9327 73.30038 193.1368 73.6008 193.2971 C 73.90122 193.4573 74.33347 193.5375 74.89755 193.5375 L 74.89755 194.0415 L 68.48555 194.0415 L 68.48555 193.5375 C 69.1208 193.5375 69.59272 193.4373 69.9013 193.2369 C 70.12792 193.0911 70.28659 192.8586 70.3773 192.5395 C 70.4228 192.3846 70.44555 191.9426 70.44555 191.2135 L 70.44555 186.3695 C 70.44555 184.9143 70.41602 184.0481 70.35696 183.7707 C 70.29789 183.4933 70.18881 183.2909 70.02971 183.1635 C 69.8706 183.036 69.67292 182.9723 69.43667 182.9723 C 69.15463 182.9723 68.83642 183.0407 68.48205 183.1775 L 68.34555 182.6735 L 72.13824 181.1335 L 72.71355 181.1335 z "
   style="font-size:28;font-weight:normal;font-family:Times New Roman;"
   id="path764" /><path
   d="M 79.90172 189.2161 L 82.98182 187.7312 L 83.29032 187.7312 L 83.29032 198.3731 C 83.29032 199.0822 83.32002 199.5239 83.37912 199.698 C 83.43832 199.872 83.56152 200.0058 83.74862 200.0991 C 83.93571 200.1924 84.31601 200.2453 84.88951 200.2578 L 84.88951 200.6004 L 80.13012 200.6004 L 80.13012 200.2578 C 80.72522 200.2453 81.10962 200.194 81.28322 200.1038 C 81.45692 200.0137 81.57782 199.8924 81.64602 199.7401 C 81.71422 199.5876 81.74832 199.132 81.74832 198.3731 L 81.74832 191.5577 C 81.74832 190.6397 81.71722 190.0506 81.65492 189.7902 C 81.61152 189.5917 81.53232 189.446 81.41732 189.353 C 81.30222 189.2599 81.16392 189.2134 81.00232 189.2134 C 80.77222 189.2134 80.45202 189.3095 80.04152 189.5016 L 79.90172 189.2161 z "
   style="font-size:28;font-weight:normal;font-family:Times New Roman;"
   id="path825" /><path
   d="M 49.68631 198.1516 L 48.80291 200.6027 L 41.36401 200.6027 L 41.36401 200.2527 C 43.55251 198.2583 45.09311 196.6292 45.98581 195.3657 C 46.87851 194.1021 47.32481 192.9465 47.32481 191.8989 C 47.32481 191.0996 47.07991 190.4429 46.59001 189.9285 C 46.10011 189.4143 45.51411 189.1571 44.83211 189.1571 C 44.21221 189.1571 43.65581 189.3363 43.16281 189.6948 C 42.66981 190.0533 42.30551 190.5787 42.06981 191.271 L 41.72581 191.271 C 41.88101 190.1303 42.27991 189.2548 42.92251 188.6444 C 43.56521 188.034 44.36761 187.7288 45.32991 187.7288 C 46.35441 187.7288 47.20951 188.0577 47.89551 188.7155 C 48.58151 189.3733 48.92451 190.149 48.92451 191.0425 C 48.92451 191.6817 48.77571 192.3204 48.47791 192.9588 C 48.01911 193.9632 47.27481 195.0264 46.24501 196.1484 C 44.70061 197.8332 43.74611 198.8419 43.38151 199.1744 L 46.64311 199.1744 C 47.30671 199.1744 47.77201 199.1496 48.03911 199.1 C 48.30631 199.0504 48.54731 198.9496 48.76241 198.7978 C 48.97741 198.646 49.16481 198.4306 49.32451 198.1516 L 49.68631 198.1516 z "
   style="font-size:28;font-weight:normal;font-family:Times New Roman;"
   id="path826" /><g
   transform="translate(74.14291,36.08276)"
   style="font-size:12;"
   id="g842"><path
   d="M 76.12505 207.415 L 98.39088 229.9817 "
   style="fill:none;fill-rule:evenodd;stroke:#ff0000;stroke-width:1.875;"
   id="path843" /><path
   d="M 75.97462 229.8313 L 98.54132 207.5654 "
   style="fill:none;fill-rule:evenodd;stroke:#ff0000;stroke-width:1.875;"
   id="path844" /></g><ellipse
   cx="104.408676"
   cy="220.052338"
   rx="3.91156006"
   ry="3.91156006"
   transform="translate(131.6512,34.72877)"
   style="font-size:12;fill:#ff0000;fill-rule:evenodd;"
   id="path850" /><path
   d="M 56.51875 258.1643 C 56.18158 259.8195 55.52074 261.0881 54.53622 261.9701 C 53.5517 262.8521 52.4624 263.2931 51.26831 263.2931 C 49.84615 263.2931 48.60634 262.6963 47.54891 261.5026 C 46.49147 260.309 45.96275 258.6961 45.96275 256.6641 C 45.96275 254.6956 46.54798 253.0963 47.71844 251.8662 C 48.8889 250.6361 50.29385 250.0211 51.93331 250.0211 C 53.16269 250.0211 54.1736 250.3471 54.96606 250.9991 C 55.75852 251.6511 56.15475 252.3282 56.15475 253.0302 C 56.15475 253.377 56.04319 253.6575 55.82006 253.8717 C 55.59694 254.086 55.28485 254.1931 54.88381 254.1931 C 54.34656 254.1931 53.94596 254.0187 53.682 253.6698 C 53.51779 253.4773 53.4106 253.1103 53.36044 252.5689 C 53.31027 252.0274 53.12579 251.6145 52.807 251.3301 C 52.48821 251.0547 52.04633 250.9171 51.48138 250.9171 C 50.5705 250.9171 49.83725 251.255 49.28163 251.9308 C 48.54371 252.8259 48.17475 254.0087 48.17475 255.4793 C 48.17475 256.9773 48.54203 258.2995 49.27659 259.4457 C 50.01116 260.592 51.00348 261.1651 52.25356 261.1651 C 53.14752 261.1651 53.95048 260.8651 54.66244 260.2651 C 55.1641 259.8469 55.65221 259.0829 56.12675 257.9731 L 56.51875 258.1643 z "
   style="font-size:28;font-weight:normal;font-family:Times New Roman;"
   id="path869" /><path
   d="M 69.28675 250.3851 L 69.28675 258.0011 C 69.28675 259.4297 69.32087 260.3034 69.38912 260.6224 C 69.45737 260.9413 69.56646 261.1642 69.71637 261.2911 C 69.86629 261.418 70.04129 261.4814 70.24137 261.4814 C 70.52312 261.4814 70.84133 261.404 71.196 261.2491 L 71.38675 261.7531 L 67.63475 263.2931 L 67.01875 263.2931 L 67.01875 260.6676 C 65.94367 261.8223 65.12372 262.5486 64.55891 262.8464 C 63.99409 263.1442 63.39727 263.2931 62.76844 263.2931 C 62.06698 263.2931 61.45885 263.0903 60.94406 262.6847 C 60.42927 262.2792 60.07169 261.7574 59.87131 261.1194 C 59.67094 260.4813 59.57075 259.579 59.57075 258.4123 L 59.57075 252.8211 C 59.57075 252.2272 59.50666 251.8161 59.37847 251.5878 C 59.25028 251.3594 59.06033 251.1836 58.80862 251.0604 C 58.55692 250.9371 58.10162 250.88 57.44275 250.8891 L 57.44275 250.3851 L 61.83875 250.3851 L 61.83875 258.7895 C 61.83875 259.9593 62.04146 260.7271 62.44687 261.0927 C 62.85229 261.4583 63.342 261.6411 63.916 261.6411 C 64.308 261.6411 64.75228 261.5177 65.24884 261.271 C 65.74541 261.0242 66.33537 260.5535 67.01875 259.8587 L 67.01875 252.7651 C 67.01875 252.0423 66.88845 251.5536 66.62784 251.299 C 66.36724 251.0444 65.82554 250.9077 65.00275 250.8891 L 65.00275 250.3851 L 69.28675 250.3851 z "
   style="font-size:28;font-weight:normal;font-family:Times New Roman;"
   id="path870" /><path
   d="M 75.97875 250.0211 L 75.97875 252.8486 C 77.01942 250.9636 78.08735 250.0211 79.18256 250.0211 C 79.68044 250.0211 80.09227 250.1743 80.41806 250.4809 C 80.74385 250.7874 80.90675 251.142 80.90675 251.5445 C 80.90675 251.9015 80.7895 252.2035 80.555 252.4505 C 80.3205 252.6976 80.04094 252.8211 79.71631 252.8211 C 79.40073 252.8211 79.0457 252.6624 78.65122 252.3451 C 78.25674 252.0277 77.96427 251.8691 77.77381 251.8691 C 77.61077 251.8691 77.43402 251.9607 77.24356 252.1438 C 76.83552 252.5192 76.41392 253.1371 75.97875 253.9975 L 75.97875 259.9891 C 75.97875 260.6867 76.06523 261.2145 76.23819 261.5724 C 76.35631 261.8203 76.56558 262.0244 76.866 262.1847 C 77.16642 262.3449 77.59867 262.4251 78.16275 262.4251 L 78.16275 262.9291 L 71.75075 262.9291 L 71.75075 262.4251 C 72.386 262.4251 72.85792 262.3249 73.1665 262.1245 C 73.39312 261.9787 73.55179 261.7462 73.6425 261.4271 C 73.688 261.2723 73.71075 260.8302 73.71075 260.1011 L 73.71075 255.2571 C 73.71075 253.802 73.68122 252.9357 73.62216 252.6583 C 73.56309 252.381 73.45401 252.1785 73.29491 252.0511 C 73.1358 251.9236 72.93812 251.8599 72.70187 251.8599 C 72.41983 251.8599 72.10162 251.9283 71.74725 252.0651 L 71.61075 251.5611 L 75.40344 250.0211 L 75.97875 250.0211 z "
   style="font-size:28;font-weight:normal;font-family:Times New Roman;"
   id="path871" /><path
   d="M 85.30275 250.0211 L 85.30275 252.8486 C 86.34342 250.9636 87.41136 250.0211 88.50657 250.0211 C 89.00444 250.0211 89.41628 250.1743 89.74207 250.4809 C 90.06786 250.7874 90.23075 251.142 90.23075 251.5445 C 90.23075 251.9015 90.1135 252.2035 89.879 252.4505 C 89.6445 252.6976 89.36494 252.8211 89.04032 252.8211 C 88.72473 252.8211 88.3697 252.6624 87.97522 252.3451 C 87.58074 252.0277 87.28828 251.8691 87.09782 251.8691 C 86.93478 251.8691 86.75803 251.9607 86.56757 252.1438 C 86.15953 252.5192 85.73792 253.1371 85.30275 253.9975 L 85.30275 259.9891 C 85.30275 260.6867 85.38923 261.2145 85.56219 261.5724 C 85.68032 261.8203 85.88959 262.0244 86.19 262.1847 C 86.49042 262.3449 86.92267 262.4251 87.48675 262.4251 L 87.48675 262.9291 L 81.07475 262.9291 L 81.07475 262.4251 C 81.71 262.4251 82.18192 262.3249 82.4905 262.1245 C 82.71713 261.9787 82.8758 261.7462 82.9665 261.4271 C 83.012 261.2723 83.03475 260.8302 83.03475 260.1011 L 83.03475 255.2571 C 83.03475 253.802 83.00522 252.9357 82.94616 252.6583 C 82.8871 252.381 82.77801 252.1785 82.61891 252.0511 C 82.45981 251.9236 82.26213 251.8599 82.02588 251.8599 C 81.74384 251.8599 81.42563 251.9283 81.07125 252.0651 L 80.93475 251.5611 L 84.72744 250.0211 L 85.30275 250.0211 z "
   style="font-size:28;font-weight:normal;font-family:Times New Roman;"
   id="path872" /><path
   d="M 107.0308 252.6478 C 108.4946 250.8967 109.8904 250.0211 111.2181 250.0211 C 111.9 250.0211 112.4864 250.1923 112.9775 250.5347 C 113.4685 250.8771 113.8595 251.4409 114.1506 252.2261 C 114.3507 252.7738 114.4508 253.6138 114.4508 254.7461 L 114.4508 260.1011 C 114.4508 260.8895 114.5142 261.4241 114.6411 261.705 C 114.7408 261.9313 114.9017 262.1079 115.1238 262.2348 C 115.3459 262.3616 115.7563 262.4251 116.3548 262.4251 L 116.3548 262.9291 L 110.1668 262.9291 L 110.1668 262.4251 L 110.4258 262.4251 C 111.0068 262.4251 111.413 262.3367 111.6446 262.16 C 111.8762 261.9832 112.0374 261.7227 112.1281 261.3786 C 112.1645 261.2427 112.1828 260.8168 112.1828 260.1011 L 112.1828 254.9451 C 112.1828 253.7995 112.0355 252.9677 111.7409 252.4499 C 111.4463 251.932 110.9502 251.6731 110.2525 251.6731 C 109.1739 251.6731 108.1 252.2679 107.0308 253.4576 L 107.0308 260.1011 C 107.0308 260.9437 107.0811 261.4646 107.1817 261.6638 C 107.3097 261.9266 107.4858 262.1192 107.7098 262.2415 C 107.9338 262.3639 108.3888 262.4251 109.0748 262.4251 L 109.0748 262.9291 L 102.8588 262.9291 L 102.8588 262.4251 L 103.1326 262.4251 C 103.772 262.4251 104.2035 262.2642 104.4272 261.9425 C 104.6509 261.6208 104.7628 261.007 104.7628 260.1011 L 104.7628 255.4531 C 104.7628 253.9504 104.7286 253.0351 104.6604 252.7071 C 104.5921 252.3791 104.4876 252.1559 104.3467 252.0375 C 104.2058 251.9191 104.0173 251.8599 103.781 251.8599 C 103.5264 251.8599 103.2219 251.9283 102.8675 252.0651 L 102.6628 251.5611 L 106.4419 250.0211 L 107.0308 250.0211 L 107.0308 252.6478 z "
   style="font-size:28;font-weight:normal;font-family:Times New Roman;"
   id="path875" /><path
   d="M 121.0308 246.2691 L 121.0308 250.3851 L 123.9563 250.3851 L 123.9563 251.3091 L 121.0308 251.3371 L 121.0308 259.4632 C 121.0308 260.2749 121.1468 260.8222 121.379 261.1049 C 121.6112 261.3877 121.9093 261.5291 122.2733 261.5291 C 122.5737 261.5291 122.865 261.4346 123.1472 261.2456 C 123.4293 261.0566 123.6479 260.7777 123.8028 260.4091 L 124.3348 260.4091 C 124.0154 261.3097 123.5636 261.9876 122.9794 262.4426 C 122.3952 262.8976 121.7927 263.1251 121.1721 263.1251 C 120.7524 263.1251 120.3417 263.0084 119.9401 262.7751 C 119.5384 262.5417 119.2418 262.2078 119.0502 261.7732 C 118.8586 261.3386 118.7628 260.6685 118.7628 259.7629 L 118.7628 251.3091 L 116.7748 251.3091 L 116.7748 250.8733 C 117.2779 250.6747 117.7924 250.3386 118.3185 249.8649 C 118.8445 249.3912 119.3144 248.8263 119.7283 248.17 C 119.9398 247.8235 120.2339 247.1899 120.6108 246.2691 L 121.0308 246.2691 z "
   style="font-size:28;font-weight:normal;font-family:Times New Roman;"
   id="path876" /><path
   d="M 128.2267 250.0211 C 128.6444 250.0211 129.0008 250.1687 129.296 250.4638 C 129.5912 250.759 129.7387 251.1154 129.7387 251.5331 C 129.7387 251.9507 129.5912 252.3072 129.296 252.6023 C 129.0008 252.8975 128.6444 253.0451 128.2267 253.0451 C 127.8091 253.0451 127.4527 252.8975 127.1575 252.6023 C 126.8623 252.3072 126.7147 251.9507 126.7147 251.5331 C 126.7147 251.1154 126.8623 250.759 127.1575 250.4638 C 127.4527 250.1687 127.8091 250.0211 128.2267 250.0211 z "
   style="font-size:28;font-weight:normal;font-family:Times New Roman;"
   id="path877" /><path
   d="M 128.1922 260.2691 C 128.6169 260.2691 128.9761 260.4183 129.27 260.7166 C 129.5638 261.015 129.7107 261.372 129.7107 261.7876 C 129.7107 262.2036 129.5616 262.5584 129.2632 262.8523 C 128.9648 263.1462 128.6078 263.2931 128.1922 263.2931 C 127.7763 263.2931 127.4214 263.1462 127.1275 262.8523 C 126.8337 262.5584 126.6867 262.2036 126.6867 261.7876 C 126.6867 261.372 126.8337 261.015 127.1275 260.7166 C 127.4214 260.4183 127.7763 260.2691 128.1922 260.2691 z "
   style="font-size:28;font-weight:normal;font-family:Times New Roman;"
   id="path878" /><path
   d="M 192.4697 245.051 C 192.8521 245.051 193.1775 245.1853 193.446 245.4537 C 193.7145 245.7222 193.8487 246.0476 193.8487 246.43 C 193.8487 246.8124 193.7145 247.1402 193.446 247.4133 C 193.1775 247.6864 192.8521 247.823 192.4697 247.823 C 192.0873 247.823 191.7596 247.6864 191.4864 247.4133 C 191.2133 247.1402 191.0767 246.8124 191.0767 246.43 C 191.0767 246.0476 191.211 245.7222 191.4794 245.4537 C 191.7479 245.1853 192.078 245.051 192.4697 245.051 z "
   style="font-size:28;font-weight:normal;font-family:Times New Roman;"
   id="path880" /><path
   d="M 193.5967 251.603 L 193.5967 261.683 C 193.5967 262.4624 193.6538 262.9811 193.768 263.2392 C 193.8822 263.4973 194.0511 263.6898 194.2748 263.8167 C 194.4986 263.9436 194.9072 264.007 195.5007 264.007 L 195.5007 264.511 L 189.4247 264.511 L 189.4247 264.007 C 190.0323 264.007 190.4403 263.9481 190.6488 263.8303 C 190.8574 263.7124 191.0228 263.5176 191.1452 263.2458 C 191.2675 262.9739 191.3287 262.453 191.3287 261.683 L 191.3287 256.839 C 191.3287 255.4898 191.2877 254.6159 191.2058 254.2175 C 191.1422 253.9276 191.0422 253.7258 190.9059 253.6122 C 190.7695 253.4986 190.5832 253.4418 190.347 253.4418 C 190.0923 253.4418 189.7832 253.5102 189.4195 253.647 L 189.2287 253.143 L 192.996 251.603 L 193.5967 251.603 z "
   style="font-size:28;font-weight:normal;font-family:Times New Roman;"
   id="path881" /><path
   d="M 200.7087 254.2298 C 202.1726 252.4786 203.5684 251.603 204.896 251.603 C 205.5779 251.603 206.1644 251.7742 206.6554 252.1166 C 207.1465 252.4591 207.5375 253.0228 207.8286 253.808 C 208.0287 254.3558 208.1287 255.1958 208.1287 256.328 L 208.1287 261.683 C 208.1287 262.4714 208.1922 263.006 208.319 263.2869 C 208.4188 263.5132 208.5797 263.6898 208.8018 263.8167 C 209.0239 263.9436 209.4342 264.007 210.0327 264.007 L 210.0327 264.511 L 203.8447 264.511 L 203.8447 264.007 L 204.1037 264.007 C 204.6847 264.007 205.091 263.9186 205.3226 263.7419 C 205.5542 263.5651 205.7153 263.3047 205.806 262.9605 C 205.8425 262.8246 205.8607 262.3988 205.8607 261.683 L 205.8607 256.5271 C 205.8607 255.3814 205.7134 254.5497 205.4188 254.0318 C 205.1243 253.5139 204.6281 253.255 203.9305 253.255 C 202.8519 253.255 201.778 253.8499 200.7087 255.0396 L 200.7087 261.683 C 200.7087 262.5256 200.759 263.0466 200.8597 263.2458 C 200.9877 263.5086 201.1637 263.7011 201.3877 263.8235 C 201.6117 263.9458 202.0667 264.007 202.7527 264.007 L 202.7527 264.511 L 196.5367 264.511 L 196.5367 264.007 L 196.8106 264.007 C 197.4499 264.007 197.8814 263.8462 198.1052 263.5245 C 198.3289 263.2027 198.4407 262.5889 198.4407 261.683 L 198.4407 257.035 C 198.4407 255.5323 198.4066 254.617 198.3383 254.289 C 198.2701 253.9611 198.1655 253.7379 198.0247 253.6195 C 197.8838 253.501 197.6952 253.4418 197.459 253.4418 C 197.2043 253.4418 196.8998 253.5102 196.5455 253.647 L 196.3407 253.143 L 200.1198 251.603 L 200.7087 251.603 L 200.7087 254.2298 z "
   style="font-size:28;font-weight:normal;font-family:Times New Roman;"
   id="path882" /><path
   d="M 282.2378 250.385 L 282.2378 258.001 C 282.2378 259.4296 282.2719 260.3034 282.3401 260.6223 C 282.4084 260.9412 282.5175 261.1641 282.6674 261.291 C 282.8173 261.4179 282.9923 261.4813 283.1924 261.4813 C 283.4741 261.4813 283.7923 261.4039 284.147 261.249 L 284.3378 261.753 L 280.5858 263.293 L 279.9698 263.293 L 279.9698 260.6676 C 278.8947 261.8223 278.0747 262.5485 277.5099 262.8463 C 276.9451 263.1441 276.3483 263.293 275.7194 263.293 C 275.018 263.293 274.4099 263.0902 273.8951 262.6847 C 273.3803 262.2791 273.0227 261.7573 272.8223 261.1193 C 272.6219 260.4813 272.5218 259.5789 272.5218 258.4123 L 272.5218 252.821 C 272.5218 252.2272 272.4577 251.8161 272.3295 251.5877 C 272.2013 251.3593 272.0113 251.1835 271.7596 251.0603 C 271.5079 250.9371 271.0526 250.88 270.3938 250.889 L 270.3938 250.385 L 274.7898 250.385 L 274.7898 258.7894 C 274.7898 259.9593 274.9925 260.727 275.3979 261.0926 C 275.8033 261.4582 276.293 261.641 276.867 261.641 C 277.259 261.641 277.7033 261.5176 278.1998 261.2709 C 278.6964 261.0241 279.2864 260.5534 279.9698 259.8586 L 279.9698 252.765 C 279.9698 252.0423 279.8395 251.5536 279.5788 251.299 C 279.3182 251.0443 278.7765 250.9077 277.9538 250.889 L 277.9538 250.385 L 282.2378 250.385 z "
   style="font-size:28;font-weight:normal;font-family:Times New Roman;"
   id="path886" /><path
   d="M 288.9018 246.269 L 288.9018 250.385 L 291.8273 250.385 L 291.8273 251.309 L 288.9018 251.337 L 288.9018 259.4631 C 288.9018 260.2748 289.0178 260.8221 289.25 261.1049 C 289.4822 261.3876 289.7803 261.529 290.1443 261.529 C 290.4447 261.529 290.736 261.4345 291.0182 261.2455 C 291.3003 261.0565 291.5189 260.7777 291.6738 260.409 L 292.2058 260.409 C 291.8864 261.3097 291.4346 261.9875 290.8504 262.4425 C 290.2662 262.8975 289.6637 263.125 289.0431 263.125 C 288.6234 263.125 288.2127 263.0083 287.8111 262.775 C 287.4094 262.5417 287.1128 262.2077 286.9212 261.7731 C 286.7296 261.3386 286.6338 260.6685 286.6338 259.7628 L 286.6338 251.309 L 284.6458 251.309 L 284.6458 250.8733 C 285.1489 250.6746 285.6635 250.3385 286.1895 249.8648 C 286.7155 249.3912 287.1854 248.8262 287.5993 248.17 C 287.8108 247.8235 288.1049 247.1898 288.4818 246.269 L 288.9018 246.269 z "
   style="font-size:28;font-weight:normal;font-family:Times New Roman;"
   id="path887" /><path
   d="M 93 255.125 C 93 256.9375 93.5 258.4375 94.375 259.5 C 95.3125 260.5 96.375 261.0625 97.625 261.0625 C 98.4375 261.0625 99.125 260.8125 99.75 260.375 C 100.375 259.9375 100.875 259.1875 101.25 258.0625 L 101.6875 258.3125 C 101.5 259.5625 100.9375 260.75 100 261.75 C 99.125 262.8125 97.9375 263.3125 96.5625 263.3125 C 95.0625 263.3125 93.75 262.6875 92.6875 261.5625 C 91.625 260.375 91.125 258.8125 91.125 256.8125 C 91.125 254.6875 91.625 253 92.75 251.8125 C 93.8125 250.625 95.1875 250 96.875 250 C 98.25 250 99.4375 250.5 100.3125 251.4375 C 101.25 252.3125 101.6875 253.5625 101.6875 255.125 L 93 255.125 z M 93 254.3125 L 98.8125 254.3125 C 98.8125 253.5625 98.6875 252.9375 98.5625 252.625 C 98.3125 252.125 98 251.75 97.5 251.4375 C 97.0625 251.125 96.625 251 96.125 251 C 95.375 251 94.6875 251.3125 94.0625 251.875 C 93.5 252.5 93.125 253.3125 93 254.3125 z "
   style="font-size:28;font-weight:normal;font-family:Times New Roman;"
   id="path890" /><path
   d="M 263.4375 250 C 265.3125 250 266.8125 250.75 268 252.1875 C 268.9375 253.4375 269.4375 254.8125 269.4375 256.4375 C 269.4375 257.5625 269.1875 258.6875 268.625 259.8125 C 268.125 261 267.375 261.8125 266.4375 262.4375 C 265.4375 263 264.4375 263.3125 263.25 263.3125 C 261.375 263.3125 259.875 262.5625 258.75 261.0625 C 257.8125 259.75 257.375 258.375 257.375 256.75 C 257.375 255.625 257.625 254.5 258.1875 253.375 C 258.75 252.1875 259.5 251.375 260.4375 250.8125 C 261.375 250.3125 262.375 250 263.4375 250 z M 263 250.9375 C 262.5 250.9375 262 251.0625 261.5 251.375 C 261.0625 251.625 260.625 252.125 260.375 252.875 C 260.0625 253.5625 259.875 254.5 259.875 255.625 C 259.875 257.4375 260.25 259 261 260.3125 C 261.6875 261.625 262.6875 262.3125 263.875 262.3125 C 264.75 262.3125 265.4375 261.9375 266.0625 261.25 C 266.625 260.5 266.875 259.25 266.875 257.4375 C 266.875 255.25 266.4375 253.5 265.4375 252.25 C 264.8125 251.375 264 250.9375 263 250.9375 z "
   style="font-size:28;font-weight:normal;font-family:Times New Roman;"
   id="path901" /><ellipse
   cx="105.457901"
   cy="58.0764198"
   rx="14.1810303"
   ry="23.7550163"
   transform="matrix(0.309644,0,0,0.603029,61.28587,10.45724)"
   style="font-size:12;fill:#691e18;fill-rule:evenodd;stroke-width:1;"
   id="path905" /></svg>
