<?xml version="1.0" encoding="UTF-8" standalone="no"?>
<!DOCTYPE svg PUBLIC "-//W3C//DTD SVG 1.0//EN"
"http://www.w3.org/TR/2001/REC-SVG-20010904/DTD/svg10.dtd">
<!-- Created with Sodipodi ("http://www.sodipodi.com/") -->
<svg
   xmlns="http://www.w3.org/2000/svg"
   xmlns:xlink="http://www.w3.org/1999/xlink"
   version="1.0"
   x="0"
   y="0"
   width="270"
   height="270"
   id="svg602"
   xml:space="preserve"><defs
   id="defs604" /><path
   d="M 140.3319 135.8184 L 250.3629 81.6198 "
   style="font-size:12;fill:none;fill-rule:evenodd;stroke:#ff0000;stroke-width:2.5;"
   id="path835" /><path
   d="M 250.7973 86.85804 L 257.0778 78.65924 L 246.8585 77.48724 L 250.7973 86.85804 L 250.7973 86.85804 z "
   style="font-size:12;fill:#ff0000;fill-rule:evenodd;stroke:#ff0000;stroke-width:0.75252;"
   id="path636" /><ellipse
   cx="88.4112015"
   cy="60.4950371"
   rx="48.3264542"
   ry="48.326458"
   transform="matrix(1.207585,0,0,2.126172,31.47926,7.730116)"
   style="font-size:12;fill:none;fill-rule:evenodd;stroke:#000000;stroke-width:1.5602;"
   id="path831" /><path
   d="M 7.587991 200.8057 L 140.3319 135.8184 "
   style="font-size:12;fill:none;fill-rule:evenodd;stroke:#ff0000;stroke-width:2.5;"
   id="path836" /><path
   d="M 133.2076 33.71827 L 173.0153 25.30224 "
   style="font-size:12;fill:none;fill-rule:evenodd;stroke:#0000ff;stroke-width:2.499963;"
   id="path632" /><path
   d="M 182.9122 24.50535 L 175.7471 22.00833 L 163.9101 31.40353 L 182.9122 24.50535 L 182.9122 24.50535 z "
   style="font-size:12;fill:#0000ff;fill-rule:evenodd;stroke:#0000ff;stroke-width:0.865829;"
   id="path840" /><path
   d="M 138.6108 136.8019 L 194.7725 153.7977 "
   style="font-size:12;fill:none;fill-rule:evenodd;stroke:#000000;stroke-width:2.5;stroke-linecap:round;"
   id="path631" /><path
   d="M 137.8488 18.05577 C 139.1333 18.32994 140.0944 18.76846 140.7319 19.37133 C 141.6154 20.21192 142.0571 21.23975 142.0571 22.45483 C 142.0571 23.37767 141.7658 24.26164 141.1832 25.10674 C 140.6006 25.95184 139.8017 26.56857 138.7866 26.95693 C 137.7715 27.34528 136.2215 27.53946 134.1366 27.53946 L 125.3971 27.53946 L 125.3971 27.03546 L 126.0893 27.03546 C 126.8584 27.03546 127.4104 26.78973 127.7452 26.29827 C 127.9532 25.97948 128.0571 25.30121 128.0571 24.26346 L 128.0571 12.25146 C 128.0571 11.10433 127.9259 10.38056 127.6634 10.08015 C 127.3108 9.679688 126.7861 9.479459 126.0893 9.479459 L 125.3971 9.479459 L 125.3971 8.975459 L 133.3955 8.975459 C 134.8877 8.975459 136.0842 9.084834 136.9852 9.303584 C 138.3502 9.631709 139.3921 10.21293 140.1109 11.04724 C 140.8297 11.88155 141.1891 12.84106 141.1891 13.92577 C 141.1891 14.8556 140.9074 15.68751 140.3439 16.42149 C 139.7804 17.15547 138.9487 17.70023 137.8488 18.05577 z M 130.6891 17.29671 C 131.0263 17.36029 131.4112 17.40798 131.8437 17.43977 C 132.2762 17.47156 132.7522 17.48746 133.2717 17.48746 C 134.6014 17.48746 135.601 17.3444 136.2705 17.05827 C 136.9401 16.77215 137.4512 16.33392 137.804 15.74358 C 138.1567 15.15325 138.3331 14.50852 138.3331 13.8094 C 138.3331 12.72848 137.8918 11.80659 137.009 11.04374 C 136.1263 10.28089 134.8387 9.899459 133.1461 9.899459 C 132.2361 9.899459 131.4171 9.999355 130.6891 10.19915 L 130.6891 17.29671 z M 130.6891 26.19021 C 131.7502 26.43638 132.7974 26.55946 133.8308 26.55946 C 135.4866 26.55946 136.7489 26.18809 137.6178 25.44537 C 138.4867 24.70264 138.9211 23.78454 138.9211 22.69108 C 138.9211 21.97125 138.7197 21.27869 138.3167 20.6134 C 137.9138 19.9481 137.2705 19.42413 136.3869 19.04146 C 135.5033 18.65879 134.4102 18.46746 133.1076 18.46746 C 132.543 18.46746 132.0602 18.47657 131.6593 18.4948 C 131.2584 18.51303 130.935 18.5449 130.6891 18.5904 L 130.6891 26.19021 z "
   style="font-size:28;font-weight:normal;fill:#0000ff;font-family:Times New Roman;"
   id="path762" /><path
   d="M 164.1223 153.1803 L 164.1223 156.0079 C 165.163 154.1228 166.231 153.1803 167.3262 153.1803 C 167.824 153.1803 168.2359 153.3336 168.5617 153.6401 C 168.8875 153.9467 169.0503 154.3012 169.0503 154.7037 C 169.0503 155.0607 168.9331 155.3627 168.6986 155.6098 C 168.4641 155.8568 168.1845 155.9803 167.8599 155.9803 C 167.5443 155.9803 167.1893 155.8217 166.7948 155.5043 C 166.4003 155.187 166.1079 155.0283 165.9174 155.0283 C 165.7544 155.0283 165.5776 155.1199 165.3872 155.3031 C 164.9791 155.6784 164.5575 156.2963 164.1223 157.1568 L 164.1223 163.1483 C 164.1223 163.846 164.2088 164.3738 164.3818 164.7316 C 164.4999 164.9795 164.7092 165.1836 165.0096 165.3439 C 165.31 165.5042 165.7423 165.5843 166.3063 165.5843 L 166.3063 166.0883 L 159.8943 166.0883 L 159.8943 165.5843 C 160.5296 165.5843 161.0015 165.4841 161.3101 165.2838 C 161.5367 165.1379 161.6954 164.9055 161.7861 164.5864 C 161.8316 164.4315 161.8543 163.9895 161.8543 163.2603 L 161.8543 158.4163 C 161.8543 156.9612 161.8248 156.0949 161.7658 155.8176 C 161.7067 155.5402 161.5976 155.3378 161.4385 155.2103 C 161.2794 155.0829 161.0817 155.0191 160.8455 155.0191 C 160.5634 155.0191 160.2452 155.0875 159.8908 155.2243 L 159.7543 154.7203 L 163.547 153.1803 L 164.1223 153.1803 z "
   style="font-size:28;font-weight:normal;font-family:Times New Roman;"
   id="path763" /><path
   d="M 233.4816 64.86175 C 233.864 64.86175 234.1894 64.99599 234.4579 65.26446 C 234.7264 65.53294 234.8606 65.85837 234.8606 66.24075 C 234.8606 66.62312 234.7264 66.95088 234.4579 67.22403 C 234.1894 67.49717 233.864 67.63375 233.4816 67.63375 C 233.0992 67.63375 232.7715 67.49717 232.4983 67.22403 C 232.2252 66.95088 232.0886 66.62312 232.0886 66.24075 C 232.0886 65.85837 232.2229 65.53294 232.4913 65.26446 C 232.7598 64.99599 233.0899 64.86175 233.4816 64.86175 z M 234.6086 71.41375 L 234.6086 81.49375 C 234.6086 82.27308 234.6657 82.79181 234.7799 83.04993 C 234.8941 83.30806 235.063 83.50056 235.2867 83.62743 C 235.5105 83.75431 235.9191 83.81775 236.5126 83.81775 L 236.5126 84.32175 L 230.4366 84.32175 L 230.4366 83.81775 C 231.0442 83.81775 231.4522 83.75883 231.6607 83.641 C 231.8693 83.52316 232.0347 83.32833 232.1571 83.0565 C 232.2794 82.78466 232.3406 82.26375 232.3406 81.49375 L 232.3406 76.64975 C 232.3406 75.3005 232.2996 74.42666 232.2177 74.02825 C 232.1541 73.73833 232.0541 73.53657 231.9178 73.42297 C 231.7814 73.30936 231.5951 73.25256 231.3589 73.25256 C 231.1042 73.25256 230.7951 73.32095 230.4314 73.45775 L 230.2406 72.95375 L 234.0079 71.41375 L 234.6086 71.41375 z "
   style="font-size:28;font-weight:normal;fill:#ff0000;font-family:Times New Roman;"
   id="path761" /></svg>
