<?xml version="1.0" encoding="UTF-8" standalone="no"?>
<!DOCTYPE svg PUBLIC "-//W3C//DTD SVG 1.0//EN"
"http://www.w3.org/TR/2001/REC-SVG-20010904/DTD/svg10.dtd">
<!-- Created with Sodipodi ("http://www.sodipodi.com/") -->
<svg
   xmlns="http://www.w3.org/2000/svg"
   xmlns:xlink="http://www.w3.org/1999/xlink"
   version="1.0"
   x="0"
   y="0"
   width="360"
   height="270"
   id="svg1377"
   xml:space="preserve"><defs
   id="defs1379" /><rect
   width="173.419266"
   height="104.596703"
   x="39.5218735"
   y="123.155739"
   style="font-size:12;fill:#b30000;fill-opacity:0.2051;fill-rule:evenodd;"
   id="rect1486" /><g
   transform="matrix(0.735385,0,0,0.798644,4.296423,9.548887)"
   style="font-size:12;"
   id="g1392"><rect
   width="61.6820984"
   height="66.7844162"
   x="61.2761459"
   y="11.6003819"
   style="fill:#ff0000;fill-rule:evenodd;"
   id="rect1382" /><ellipse
   cx="124.206581"
   cy="48.7375259"
   rx="28.7110672"
   ry="34.0163803"
   transform="matrix(0.694386,0,0,0.956317,35.9252,-1.581902)"
   style="fill:#682732;fill-rule:evenodd;stroke:#bc0000;stroke-width:2.5463;"
   id="path1383" /><ellipse
   cx="124.206581"
   cy="48.7375259"
   rx="28.7110672"
   ry="34.0163803"
   transform="matrix(0.694386,0,0,0.948329,-24.38746,-1.192651)"
   style="fill:#ff0000;fill-rule:evenodd;stroke:#ff0000;stroke-width:2.5463;"
   id="path1391" /></g><g
   style="font-size:12;"
   id="g1406"><path
   d="M 39.51008 122.0781 L 212.9689 121.5963 "
   style="fill:none;fill-rule:evenodd;stroke:#ff0000;stroke-width:2.5;"
   id="path1404" /><path
   d="M 39.51008 229.5262 L 212.9689 229.0444 "
   style="fill:none;fill-rule:evenodd;stroke:#ff0000;stroke-width:2.5;"
   id="path1405" /></g><path
   d="M 8.191113 176.5249 L 248.6244 176.5249 "
   style="font-size:12;fill:none;fill-rule:evenodd;stroke:#000000;stroke-width:2.5;stroke-dasharray:2.5 5 ;stroke-dashoffset:0;stroke-opacity:0.5043;"
   id="path1412" /><path
   d="M 316.5624 176.5249 L 354.1452 176.0431 "
   style="font-size:12;fill:none;fill-rule:evenodd;stroke:#000000;stroke-width:2.5;stroke-dasharray:2.5 5 ;stroke-dashoffset:0;stroke-opacity:0.5043;"
   id="path1413" /><path
   d="M 28.90981 176.0431 L 28.90981 123.9363 "
   style="font-size:12;fill:none;fill-rule:evenodd;stroke:#000000;stroke-width:2.5;"
   id="path1416" /><path
   d="M 41.15065 104.045 L 210.4599 103.5952 "
   style="font-size:12;fill:none;fill-rule:evenodd;stroke:#000000;stroke-width:2.5;stroke-linecap:round;"
   id="path1427" /><path
   d="M 20.14011 131.3431 L 28.91913 122.5641 L 37.69816 131.0849 "
   style="font-size:12;fill:none;fill-rule:evenodd;stroke:#000000;stroke-width:2.5;"
   id="path1432" /><path
   d="M 49.57565 112.7522 L 40.79666 103.9732 L 49.31745 95.19412 "
   style="font-size:12;fill:none;fill-rule:evenodd;stroke:#000000;stroke-width:2.499999;"
   id="path1433" /><path
   d="M 202.6921 94.93593 L 211.4711 103.7149 L 202.9503 112.494 "
   style="font-size:12;fill:none;fill-rule:evenodd;stroke:#000000;stroke-width:2.499999;"
   id="path1434" /><path
   d="M 244.9674 176.3059 L 313.79 175.9652 "
   style="font-size:12;fill:none;fill-rule:evenodd;stroke:#0000ff;stroke-width:2.5;"
   id="path1442" /><path
   d="M 305.494 167.0323 L 314.273 175.8112 L 305.7522 184.5902 "
   style="font-size:12;fill:none;fill-rule:evenodd;stroke:#0000ff;stroke-width:2.499999;"
   id="path1443" /><ellipse
   cx="258.084595"
   cy="185.334625"
   rx="3.23670197"
   ry="3.23670959"
   transform="translate(-11.9247,-8.858341)"
   style="font-size:12;fill:#0000ff;fill-rule:evenodd;"
   id="path1444" /><path
   d="M 15.52231 142.0298 L 15.52231 144.8573 C 16.56298 142.9723 17.63091 142.0298 18.72612 142.0298 C 19.224 142.0298 19.63583 142.183 19.96162 142.4896 C 20.28741 142.7961 20.45031 143.1506 20.45031 143.5531 C 20.45031 143.9101 20.33306 144.2122 20.09856 144.4592 C 19.86406 144.7062 19.5845 144.8298 19.25987 144.8298 C 18.94429 144.8298 18.58926 144.6711 18.19478 144.3538 C 17.8003 144.0364 17.50783 143.8778 17.31737 143.8778 C 17.15433 143.8778 16.97758 143.9693 16.78712 144.1525 C 16.37908 144.5279 15.95748 145.1458 15.52231 146.0062 L 15.52231 151.9978 C 15.52231 152.6954 15.60879 153.2232 15.78175 153.5811 C 15.89987 153.829 16.10914 154.0331 16.40956 154.1934 C 16.70998 154.3536 17.14223 154.4338 17.70631 154.4338 L 17.70631 154.9378 L 11.29431 154.9378 L 11.29431 154.4338 C 11.92956 154.4338 12.40148 154.3336 12.71006 154.1332 C 12.93668 153.9874 13.09535 153.7549 13.18606 153.4358 C 13.23156 153.2809 13.25431 152.8389 13.25431 152.1098 L 13.25431 147.2658 C 13.25431 145.8106 13.22478 144.9444 13.16572 144.667 C 13.10665 144.3896 12.99757 144.1872 12.83847 144.0598 C 12.67936 143.9323 12.48168 143.8686 12.24543 143.8686 C 11.96339 143.8686 11.64518 143.937 11.29081 144.0738 L 11.15431 143.5698 L 14.947 142.0298 L 15.52231 142.0298 z "
   style="font-size:28;font-weight:normal;font-family:Times New Roman;"
   id="path1479" /><path
   d="M 293.1473 159.5433 C 294.4318 159.8175 295.3928 160.256 296.0304 160.8589 C 296.9139 161.6995 297.3556 162.7273 297.3556 163.9424 C 297.3556 164.8652 297.0643 165.7492 296.4817 166.5943 C 295.8991 167.4394 295.1002 168.0561 294.0851 168.4445 C 293.0699 168.8328 291.5199 169.027 289.4351 169.027 L 280.6956 169.027 L 280.6956 168.523 L 281.3877 168.523 C 282.1569 168.523 282.7088 168.2773 283.0437 167.7858 C 283.2516 167.467 283.3556 166.7887 283.3556 165.751 L 283.3556 153.739 C 283.3556 152.5919 283.2244 151.8681 282.9619 151.5677 C 282.6092 151.1672 282.0845 150.967 281.3877 150.967 L 280.6956 150.967 L 280.6956 150.463 L 288.694 150.463 C 290.1861 150.463 291.3827 150.5724 292.2837 150.7911 C 293.6487 151.1192 294.6906 151.7005 295.4094 152.5348 C 296.1282 153.3691 296.4876 154.3286 296.4876 155.4133 C 296.4876 156.3431 296.2059 157.175 295.6424 157.909 C 295.0789 158.643 294.2472 159.1878 293.1473 159.5433 z M 285.9876 158.7842 C 286.3248 158.8478 286.7096 158.8955 287.1422 158.9273 C 287.5747 158.9591 288.0507 158.975 288.5702 158.975 C 289.8999 158.975 290.8995 158.8319 291.569 158.5458 C 292.2385 158.2597 292.7497 157.8215 293.1024 157.2311 C 293.4552 156.6408 293.6316 155.9961 293.6316 155.2969 C 293.6316 154.216 293.1902 153.2941 292.3075 152.5313 C 291.4248 151.7684 290.1371 151.387 288.4446 151.387 C 287.5346 151.387 286.7156 151.4869 285.9876 151.6867 L 285.9876 158.7842 z M 285.9876 167.6777 C 287.0487 167.9239 288.0959 168.047 289.1293 168.047 C 290.7851 168.047 292.0474 167.6756 292.9163 166.9329 C 293.7852 166.1902 294.2196 165.2721 294.2196 164.1786 C 294.2196 163.4588 294.0181 162.7662 293.6152 162.1009 C 293.2123 161.4356 292.569 160.9117 291.6854 160.529 C 290.8018 160.1463 289.7087 159.955 288.4061 159.955 C 287.8414 159.955 287.3587 159.9641 286.9578 159.9823 C 286.5569 160.0006 286.2335 160.0324 285.9876 160.0779 L 285.9876 167.6777 z "
   style="font-size:28;font-weight:normal;fill:#0000ff;font-family:Times New Roman;"
   id="path1481" /><g
   transform="translate(0,-32.09219)"
   style="font-size:12;"
   id="g1460"><path
   d="M 39.3524 189.9116 L 242.3789 189.4619 "
   style="fill:none;fill-rule:evenodd;stroke:#000000;stroke-width:2.5;"
   id="path1420" /><path
   d="M 234.9679 180.6605 L 243.7469 189.4394 L 235.2261 198.2185 "
   style="fill:none;fill-rule:evenodd;stroke:#000000;stroke-width:2.499999;"
   id="path1435" /></g><g
   transform="translate(0,-14.872)"
   style="font-size:12;"
   id="g1463"><path
   d="M 212.8839 215.0871 L 242.3789 215.087 "
   style="fill:none;fill-rule:evenodd;stroke:#000000;stroke-width:2.5;"
   id="path1425" /><path
   d="M 234.9679 206.2229 L 243.7469 215.0018 L 235.2261 223.7809 "
   style="fill:none;fill-rule:evenodd;stroke:#000000;stroke-width:2.499999;"
   id="path1436" /></g><path
   d="M 256.1198 231.7507 L 255.2364 234.2018 L 247.7975 234.2018 L 247.7975 233.8518 C 249.986 231.8574 251.5266 230.2283 252.4193 228.9648 C 253.312 227.7012 253.7583 226.5456 253.7583 225.498 C 253.7583 224.6987 253.5134 224.042 253.0235 223.5276 C 252.5336 223.0134 251.9476 222.7562 251.2656 222.7562 C 250.6457 222.7562 250.0893 222.9354 249.5963 223.2939 C 249.1033 223.6524 248.739 224.1778 248.5033 224.8701 L 248.1593 224.8701 C 248.3145 223.7294 248.7134 222.8539 249.356 222.2435 C 249.9987 221.6331 250.8011 221.3279 251.7634 221.3279 C 252.7879 221.3279 253.643 221.6568 254.329 222.3146 C 255.015 222.9724 255.358 223.7481 255.358 224.6416 C 255.358 225.2808 255.2092 225.9195 254.9114 226.5579 C 254.4526 227.5623 253.7083 228.6255 252.6785 229.7475 C 251.1341 231.4323 250.1796 232.441 249.815 232.7735 L 253.0766 232.7735 C 253.7402 232.7735 254.2055 232.7487 254.4726 232.6991 C 254.7398 232.6495 254.9808 232.5487 255.1959 232.3969 C 255.4109 232.2451 255.5983 232.0297 255.758 231.7507 L 256.1198 231.7507 z "
   transform="translate(0,-86.101)"
   style="font-size:28;font-weight:normal;font-family:Times New Roman;"
   id="path1469" /><path
   d="M 251.2402 224.3783 L 254.3203 222.8934 L 254.6288 222.8934 L 254.6288 233.5353 C 254.6288 234.2444 254.6585 234.6861 254.7176 234.8602 C 254.7768 235.0342 254.9 235.168 255.0871 235.2613 C 255.2742 235.3546 255.6545 235.4075 256.228 235.42 L 256.228 235.7626 L 251.4686 235.7626 L 251.4686 235.42 C 252.0637 235.4075 252.4481 235.3562 252.6217 235.266 C 252.7954 235.1759 252.9163 235.0546 252.9845 234.9023 C 253.0527 234.7498 253.0868 234.2942 253.0868 233.5353 L 253.0868 226.7199 C 253.0868 225.8019 253.0557 225.2128 252.9934 224.9524 C 252.95 224.7539 252.8708 224.6082 252.7558 224.5152 C 252.6407 224.4221 252.5024 224.3756 252.3408 224.3756 C 252.1107 224.3756 251.7905 224.4717 251.38 224.6638 L 251.2402 224.3783 z "
   transform="translate(-1.565456,2.348208)"
   style="font-size:28;font-weight:normal;font-family:Times New Roman;"
   id="path1475" /><path
   d="M 60.16375 19.11927 C 48.37069 21.74428 45.13338 35.49428 45.36461 48.30678 C 45.19119 52.86927 46.00051 58.99426 48.13945 64.36927 L 41.74271 64.79855 L 66.11893 70.80865 L 83.74508 64.36929 L 78.1424 64.36927 C 76.11908 58.86927 75.42537 52.61927 75.42537 47.86927 C 75.42537 38.24427 77.96897 21.24427 89.35736 18.86927 L 60.16375 19.11927 L 60.16375 19.11927 L 60.16375 19.11927 z "
   style="font-size:12;fill-opacity:0.5;fill-rule:evenodd;"
   id="path641" /><path
   d="M 54.46545 17.5938 C 42.88504 19.97801 39.7061 32.46669 39.93317 44.10387 C 39.76287 48.24783 40.5576 53.81096 42.65797 58.6929 L 36.37658 59.08281 L 60.31324 64.54159 L 77.62154 58.69292 L 72.11989 58.6929 C 70.13306 53.69743 69.45186 48.02076 69.45186 43.70649 C 69.45186 34.96441 71.94959 19.52386 83.13264 17.36673 L 54.46545 17.5938 L 54.46545 17.5938 L 54.46545 17.5938 z "
   style="font-size:12;fill:#ff0000;fill-rule:evenodd;stroke:#000000;stroke-width:1.248868;"
   id="path643" /><path
   d="M 55.82833 27.47053 C 56.2107 27.47053 56.53613 27.60477 56.80461 27.87325 C 57.07309 28.14173 57.20733 28.46716 57.20733 28.84953 C 57.20733 29.23191 57.07309 29.55967 56.80461 29.83282 C 56.53613 30.10596 56.2107 30.24253 55.82833 30.24253 C 55.44595 30.24253 55.11819 30.10596 54.84505 29.83282 C 54.5719 29.55967 54.43533 29.23191 54.43533 28.84953 C 54.43533 28.46716 54.56957 28.14173 54.83805 27.87325 C 55.10653 27.60477 55.43662 27.47053 55.82833 27.47053 z M 56.95533 34.02253 L 56.95533 44.10253 C 56.95533 44.88187 57.01242 45.4006 57.12661 45.65872 C 57.2408 45.91685 57.40975 46.10935 57.63345 46.23622 C 57.85716 46.3631 58.26579 46.42653 58.85933 46.42653 L 58.85933 46.93053 L 52.78333 46.93053 L 52.78333 46.42653 C 53.39087 46.42653 53.79891 46.36762 54.00745 46.24978 C 54.216 46.13195 54.38144 45.93712 54.5038 45.66528 C 54.62615 45.39345 54.68733 44.87253 54.68733 44.10253 L 54.68733 39.25853 C 54.68733 37.90928 54.64635 37.03545 54.56439 36.63703 C 54.50081 36.34712 54.40084 36.14536 54.26449 36.03175 C 54.12813 35.91815 53.94183 35.86135 53.70558 35.86135 C 53.45095 35.86135 53.14179 35.92974 52.77808 36.06653 L 52.58733 35.56253 L 56.35464 34.02253 L 56.95533 34.02253 z "
   style="font-size:28;font-weight:normal;font-family:Times New Roman;"
   id="path661" /><path
   d="M 131.0701 76.37051 L 131.0701 93.00251 C 131.0701 93.78185 131.1268 94.29831 131.2403 94.55192 C 131.3537 94.80552 131.5285 94.99802 131.7646 95.12942 C 132.0007 95.26081 132.4412 95.32651 133.0861 95.32651 L 133.0861 95.8305 L 126.9541 95.8305 L 126.9541 95.32651 C 127.529 95.32651 127.9213 95.2676 128.1312 95.14976 C 128.341 95.03193 128.5053 94.8371 128.624 94.56526 C 128.7427 94.29343 128.8021 93.77251 128.8021 93.00251 L 128.8021 81.60651 C 128.8021 80.20884 128.7703 79.34996 128.7067 79.02986 C 128.6431 78.70975 128.5409 78.49071 128.4 78.37273 C 128.2592 78.25475 128.0796 78.19576 127.8615 78.19576 C 127.6252 78.19576 127.3254 78.26868 126.962 78.41451 L 126.7301 77.91051 L 130.4558 76.37051 L 131.0701 76.37051 z "
   style="font-size:28;font-weight:normal;font-family:Times New Roman;"
   id="path1480" /><path
   d="M 235.093 218.992 L 240.945 218.992 L 240.945 219.496 C 240.5725 219.496 240.3114 219.5609 240.1616 219.6907 C 240.0119 219.8205 239.937 219.992 239.937 220.2052 C 239.937 220.4277 240.1016 220.7707 240.4309 221.2342 C 240.5321 221.3785 240.6841 221.6043 240.8868 221.9114 L 241.7951 223.3447 L 242.8262 221.9136 C 243.4904 221.0217 243.8246 220.4526 243.829 220.2065 C 243.829 220.0076 243.7513 219.8394 243.596 219.702 C 243.4407 219.5647 243.1895 219.496 242.8424 219.496 L 242.8424 218.992 L 247.049 218.992 L 247.049 219.496 C 246.5984 219.5234 246.2077 219.6462 245.8769 219.8644 C 245.4263 220.1732 244.8167 220.846 244.0482 221.8825 L 242.3336 224.158 L 245.453 228.687 C 246.2186 229.7936 246.7655 230.4589 247.0936 230.6829 C 247.4217 230.9069 247.8455 231.0326 248.365 231.06 L 248.365 231.536 L 242.4443 231.536 L 242.4443 231.06 C 242.8544 231.06 243.1733 230.9681 243.4011 230.7844 C 243.5744 230.6557 243.661 230.4858 243.661 230.2747 C 243.661 230.0635 243.3674 229.5309 242.7803 228.6769 L 240.9454 225.9999 L 238.9338 228.6699 C 238.3333 229.5082 238.033 230.0055 238.033 230.1618 C 238.033 230.3829 238.1357 230.5833 238.341 230.7629 C 238.5463 230.9426 238.8543 231.0416 239.265 231.06 L 239.265 231.536 L 235.177 231.536 L 235.177 231.06 C 235.5042 231.0142 235.7905 230.8999 236.0358 230.717 C 236.3811 230.4519 236.9629 229.7752 237.781 228.687 L 240.3916 225.1822 L 238.033 221.732 C 237.3616 220.7445 236.8421 220.1249 236.4746 219.8733 C 236.1071 219.6218 235.6466 219.496 235.093 219.496 L 235.093 218.992 z "
   style="font-size:28;font-weight:normal;font-family:Times New Roman;"
   id="path669" /><path
   d="M 232.1342 129.2427 L 237.9862 129.2427 L 237.9862 129.7467 C 237.6138 129.7467 237.3526 129.8116 237.2029 129.9414 C 237.0531 130.0711 236.9782 130.2426 236.9782 130.4559 C 236.9782 130.6784 237.1429 131.0214 237.4722 131.4849 C 237.5734 131.6292 237.7253 131.855 237.928 132.1621 L 238.8363 133.5954 L 239.8675 132.1643 C 240.5316 131.2724 240.8658 130.7033 240.8702 130.4572 C 240.8702 130.2582 240.7926 130.0901 240.6372 129.9527 C 240.4819 129.8154 240.2307 129.7467 239.8837 129.7467 L 239.8837 129.2427 L 244.0902 129.2427 L 244.0902 129.7467 C 243.6396 129.7741 243.2489 129.8969 242.9182 130.115 C 242.4675 130.4239 241.8579 131.0966 241.0894 132.1332 L 239.3748 134.4087 L 242.4942 138.9377 C 243.2598 140.0443 243.8067 140.7095 244.1348 140.9335 C 244.463 141.1575 244.8868 141.2833 245.4062 141.3107 L 245.4062 141.7867 L 239.4855 141.7867 L 239.4855 141.3107 C 239.8956 141.3107 240.2146 141.2188 240.4423 141.035 C 240.6156 140.9064 240.7022 140.7365 240.7022 140.5254 C 240.7022 140.3142 240.4087 139.7816 239.8215 138.9276 L 237.9867 136.2505 L 235.975 138.9206 C 235.3745 139.7589 235.0742 140.2561 235.0742 140.4125 C 235.0742 140.6336 235.1769 140.8339 235.3822 141.0136 C 235.5876 141.1933 235.8956 141.2923 236.3062 141.3107 L 236.3062 141.7867 L 232.2182 141.7867 L 232.2182 141.3107 C 232.5455 141.2649 232.8317 141.1505 233.077 140.9677 C 233.4224 140.7025 234.0041 140.0259 234.8222 138.9377 L 237.4328 135.4329 L 235.0742 131.9827 C 234.4028 130.9951 233.8833 130.3756 233.5158 130.124 C 233.1483 129.8724 232.6878 129.7467 232.1342 129.7467 L 232.1342 129.2427 z "
   style="font-size:28;font-weight:normal;font-family:Times New Roman;"
   id="path668" /></svg>
