<?xml version="1.0" encoding="UTF-8" standalone="no"?>
<!DOCTYPE svg PUBLIC "-//W3C//DTD SVG 1.0//EN"
"http://www.w3.org/TR/2001/REC-SVG-20010904/DTD/svg10.dtd">
<!-- Created with Sodipodi ("http://www.sodipodi.com/") -->
<svg
   xmlns="http://www.w3.org/2000/svg"
   xmlns:xlink="http://www.w3.org/1999/xlink"
   version="1.0"
   x="0"
   y="0"
   width="270"
   height="270"
   id="svg1206"
   xml:space="preserve"><defs
   id="defs1208" /><path
   d="M 84.25321 104.3808 C 86.8432 104.3808 88.30303 115.7258 87.11899 129.4014 C 85.87303 143.9579 79.38207 153.4273 76.7921 153.4273 "
   transform="matrix(0.141866,-1.622175,1.622175,0.141866,-17.19849,262.4275)"
   style="font-size:12;fill:none;fill-rule:evenodd;stroke:#ffbab8;stroke-width:1.5353;"
   id="path1536" /><path
   d="M 84.25321 104.3808 C 86.8432 104.3808 88.30303 115.7258 87.11899 129.4014 C 85.87303 143.9579 79.38207 153.4273 76.7921 153.4273 "
   transform="matrix(-0.132799,1.622942,-1.622942,-0.132799,278.9443,12.62849)"
   style="font-size:12;fill:none;fill-rule:evenodd;stroke:#ffbab8;stroke-width:1.5353;"
   id="path1533" /><path
   d="M 84.25321 104.3808 C 86.8432 104.3808 88.30303 115.7258 87.11899 129.4014 C 85.87303 143.9579 79.38207 153.4273 76.7921 153.4273 "
   transform="matrix(0.177943,1.618614,-1.618614,0.177943,252.4176,-13.1506)"
   style="font-size:12;fill:none;fill-rule:evenodd;stroke:#ffbab8;stroke-width:1.5353;"
   id="path1463" /><path
   d="M 90.0563 153.7589 C 87.46629 153.7589 81.71906 143.9574 80.72424 129.4014 C 79.76655 115.7079 81.6632 104.3808 84.25321 104.3808 "
   transform="matrix(0.177943,1.618614,-1.618614,0.177943,252.4176,-13.1506)"
   style="font-size:12;fill:none;fill-rule:evenodd;stroke:#ff0000;stroke-width:1.5353;"
   id="path1464" /><path
   d="M 84.25321 104.3808 C 86.8432 104.3808 88.30303 115.7258 87.11899 129.4014 C 85.87303 143.9579 79.38207 153.4273 76.7921 153.4273 "
   transform="matrix(-0.168896,-1.619585,1.619585,-0.168896,9.124418,288.3601)"
   style="font-size:12;fill:none;fill-rule:evenodd;stroke:#ffbab8;stroke-width:1.5353;"
   id="path1466" /><path
   d="M 84.25321 104.3808 C 86.8432 104.3808 88.30303 115.7258 87.11899 129.4014 C 85.87303 143.9579 79.38207 153.4273 76.7921 153.4273 "
   transform="matrix(0.46318,1.561103,-1.561103,0.46318,223.537,-32.30826)"
   style="font-size:12;fill:none;fill-rule:evenodd;stroke:#ffbab8;stroke-width:1.5353;"
   id="path1456" /><path
   d="M 90.0563 153.7589 C 87.46629 153.7589 81.71906 143.9574 80.72424 129.4014 C 79.76655 115.7079 81.6632 104.3808 84.25321 104.3808 "
   transform="matrix(0.46318,1.561103,-1.561103,0.46318,223.537,-32.30826)"
   style="font-size:12;fill:none;fill-rule:evenodd;stroke:#ff0000;stroke-width:1.5353;"
   id="path1457" /><path
   d="M 84.25321 104.3808 C 86.8432 104.3808 88.30303 115.7258 87.11899 129.4014 C 85.87303 143.9579 79.38207 153.4273 76.7921 153.4273 "
   transform="matrix(-0.45445,-1.563668,1.563668,-0.45445,37.79025,307.6895)"
   style="font-size:12;fill:none;fill-rule:evenodd;stroke:#ffbab8;stroke-width:1.5353;"
   id="path1459" /><path
   d="M 84.25321 104.3808 C 86.8432 104.3808 88.30303 115.7258 87.11899 129.4014 C 85.87303 143.9579 79.38207 153.4273 76.7921 153.4273 "
   transform="matrix(0.741056,1.44997,-1.44997,0.741056,190.7661,-46.32658)"
   style="font-size:12;fill:none;fill-rule:evenodd;stroke:#ffbab8;stroke-width:1.5353;"
   id="path1449" /><path
   d="M 90.0563 153.7589 C 87.46629 153.7589 81.71906 143.9574 80.72424 129.4014 C 79.76655 115.7079 81.6632 104.3808 84.25321 104.3808 "
   transform="matrix(0.741056,1.44997,-1.44997,0.741056,190.7661,-46.32658)"
   style="font-size:12;fill:none;fill-rule:evenodd;stroke:#ff0000;stroke-width:1.5353;"
   id="path1450" /><path
   d="M 84.25321 104.3808 C 86.8432 104.3808 88.30303 115.7258 87.11899 129.4014 C 85.87303 143.9579 79.38207 153.4273 76.7921 153.4273 "
   transform="matrix(-0.732941,-1.454089,1.454089,-0.732941,70.37975,321.9224)"
   style="font-size:12;fill:none;fill-rule:evenodd;stroke:#ffbab8;stroke-width:1.5353;"
   id="path1452" /><path
   d="M 84.25321 104.3808 C 86.8432 104.3808 88.30303 115.7258 87.11899 129.4014 C 85.87303 143.9579 79.38207 153.4273 76.7921 153.4273 "
   transform="matrix(0.990754,1.292278,-1.292278,0.990754,156.4532,-54.04872)"
   style="font-size:12;fill:none;fill-rule:evenodd;stroke:#ffbab8;stroke-width:1.5353;"
   id="path1442" /><path
   d="M 90.0563 153.7589 C 87.46629 153.7589 81.71906 143.9574 80.72424 129.4014 C 79.76655 115.7079 81.6632 104.3808 84.25321 104.3808 "
   transform="matrix(0.990754,1.292278,-1.292278,0.990754,156.4532,-54.04872)"
   style="font-size:12;fill:none;fill-rule:evenodd;stroke:#ff0000;stroke-width:1.5353;"
   id="path1443" /><path
   d="M 84.25321 104.3808 C 86.8432 104.3808 88.30303 115.7258 87.11899 129.4014 C 85.87303 143.9579 79.38207 153.4273 76.7921 153.4273 "
   transform="matrix(-0.98352,-1.297795,1.297795,-0.98352,104.5581,329.8877)"
   style="font-size:12;fill:none;fill-rule:evenodd;stroke:#ffbab8;stroke-width:1.5353;"
   id="path1445" /><path
   d="M 135.3785 37.18746 C 136.9429 39.25167 132.6024 49.75218 121.6023 59.33673 C 111.2672 68.37075 101.094 73.70061 99.52974 71.63639 "
   transform="matrix(1.628368,0,0,1.628368,-5.99271,1.233382)"
   style="font-size:12;fill:none;fill-rule:evenodd;stroke:#ff0000;stroke-width:1.5353;"
   id="path1446" /><path
   d="M 84.25321 104.3808 C 86.8432 104.3808 88.30303 115.7258 87.11899 129.4014 C 85.87303 143.9579 79.38207 153.4273 76.7921 153.4273 "
   transform="matrix(1.206258,1.093855,-1.093855,1.206258,121.5988,-55.45638)"
   style="font-size:12;fill:none;fill-rule:evenodd;stroke:#ffbab8;stroke-width:1.5353;"
   id="path1330" /><path
   d="M 90.0563 153.7589 C 87.46629 153.7589 81.71906 143.9574 80.72424 129.4014 C 79.76655 115.7079 81.6632 104.3808 84.25321 104.3808 "
   transform="matrix(1.206258,1.093855,-1.093855,1.206258,121.5988,-55.45638)"
   style="font-size:12;fill:none;fill-rule:evenodd;stroke:#ff0000;stroke-width:1.5353;"
   id="path1331" /><path
   d="M 84.25321 104.3808 C 86.8432 104.3808 88.30303 115.7258 87.11899 129.4014 C 85.87303 143.9579 79.38207 153.4273 76.7921 153.4273 "
   transform="matrix(-1.200127,-1.100578,1.100578,-1.200127,139.3328,331.5652)"
   style="font-size:12;fill:none;fill-rule:evenodd;stroke:#ffbab8;stroke-width:1.5353;"
   id="path1333" /><path
   d="M 90.0563 153.7589 C 87.46629 153.7589 81.71906 143.9574 80.72424 129.4014 C 79.76655 115.7079 81.6632 104.3808 84.25321 104.3808 "
   transform="matrix(-1.200127,-1.100578,1.100578,-1.200127,139.3328,331.5652)"
   style="font-size:12;fill:none;fill-rule:evenodd;stroke:#ff0000;stroke-width:1.5353;"
   id="path1334" /><path
   d="M 84.25321 104.3808 C 86.8432 104.3808 88.30303 115.7258 87.11899 129.4014 C 85.87303 143.9579 79.38207 153.4273 76.7921 153.4273 "
   transform="matrix(1.390322,0.847689,-0.847689,1.390322,85.374,-50.19841)"
   style="font-size:12;fill:none;fill-rule:evenodd;stroke:#ffbab8;stroke-width:1.5353;"
   id="path1435" /><path
   d="M 90.0563 153.7589 C 87.46629 153.7589 81.71906 143.9574 80.72424 129.4014 C 79.76655 115.7079 81.6632 104.3808 84.25321 104.3808 "
   transform="matrix(1.390322,0.847689,-0.847689,1.390322,85.374,-50.19841)"
   style="font-size:12;fill:none;fill-rule:evenodd;stroke:#ff0000;stroke-width:1.5353;"
   id="path1436" /><path
   d="M 84.25321 104.3808 C 86.8432 104.3808 88.30303 115.7258 87.11899 129.4014 C 85.87303 143.9579 79.38207 153.4273 76.7921 153.4273 "
   transform="matrix(-1.385564,-0.855445,0.855445,-1.385564,175.5202,326.5955)"
   style="font-size:12;fill:none;fill-rule:evenodd;stroke:#ffbab8;stroke-width:1.5353;"
   id="path1438" /><path
   d="M 90.0563 153.7589 C 87.46629 153.7589 81.71906 143.9574 80.72424 129.4014 C 79.76655 115.7079 81.6632 104.3808 84.25321 104.3808 "
   transform="matrix(-1.385564,-0.855445,0.855445,-1.385564,175.5202,326.5955)"
   style="font-size:12;fill:none;fill-rule:evenodd;stroke:#ff0000;stroke-width:1.5353;"
   id="path1439" /><path
   d="M 84.25321 104.3808 C 86.8432 104.3808 88.30303 115.7258 87.11899 129.4014 C 85.87303 143.9579 79.38207 153.4273 76.7921 153.4273 "
   transform="matrix(1.525446,0.569733,-0.569733,1.525446,50.60095,-38.14157)"
   style="font-size:12;fill:none;fill-rule:evenodd;stroke:#ffbab8;stroke-width:1.5353;"
   id="path1470" /><path
   d="M 90.0563 153.7589 C 87.46629 153.7589 81.71906 143.9574 80.72424 129.4014 C 79.76655 115.7079 81.6632 104.3808 84.25321 104.3808 "
   transform="matrix(1.525446,0.569733,-0.569733,1.525446,50.60095,-38.14157)"
   style="font-size:12;fill:none;fill-rule:evenodd;stroke:#ff0000;stroke-width:1.5353;"
   id="path1471" /><path
   d="M 84.25321 104.3808 C 86.8432 104.3808 88.30303 115.7258 87.11899 129.4014 C 85.87303 143.9579 79.38207 153.4273 76.7921 153.4273 "
   transform="matrix(-1.522239,-0.578247,0.578247,-1.522239,210.3157,314.8339)"
   style="font-size:12;fill:none;fill-rule:evenodd;stroke:#ffbab8;stroke-width:1.5353;"
   id="path1473" /><path
   d="M 90.0563 153.7589 C 87.46629 153.7589 81.71906 143.9574 80.72424 129.4014 C 79.76655 115.7079 81.6632 104.3808 84.25321 104.3808 "
   transform="matrix(-1.522239,-0.578247,0.578247,-1.522239,210.3157,314.8339)"
   style="font-size:12;fill:none;fill-rule:evenodd;stroke:#ff0000;stroke-width:1.5353;"
   id="path1474" /><path
   d="M 84.25321 104.3808 C 86.8432 104.3808 88.30303 115.7258 87.11899 129.4014 C 85.87303 143.9579 79.38207 153.4273 76.7921 153.4273 "
   transform="matrix(1.60376,0.282016,-0.282016,1.60376,19.7952,-20.48162)"
   style="font-size:12;fill:none;fill-rule:evenodd;stroke:#ffbab8;stroke-width:1.5353;"
   id="path1477" /><path
   d="M 90.0563 153.7589 C 87.46629 153.7589 81.71906 143.9574 80.72424 129.4014 C 79.76655 115.7079 81.6632 104.3808 84.25321 104.3808 "
   transform="matrix(1.60376,0.282016,-0.282016,1.60376,19.7952,-20.48162)"
   style="font-size:12;fill:none;fill-rule:evenodd;stroke:#ff0000;stroke-width:1.5353;"
   id="path1478" /><path
   d="M 84.25321 104.3808 C 86.8432 104.3808 88.30303 115.7258 87.11899 129.4014 C 85.87303 143.9579 79.38207 153.4273 76.7921 153.4273 "
   transform="matrix(-1.602159,-0.290972,0.290972,-1.602159,240.6292,296.8837)"
   style="font-size:12;fill:none;fill-rule:evenodd;stroke:#ffbab8;stroke-width:1.5353;"
   id="path1480" /><path
   d="M 90.0563 153.7589 C 87.46629 153.7589 81.71906 143.9574 80.72424 129.4014 C 79.76655 115.7079 81.6632 104.3808 84.25321 104.3808 "
   transform="matrix(-1.602159,-0.290972,0.290972,-1.602159,240.6292,296.8837)"
   style="font-size:12;fill:none;fill-rule:evenodd;stroke:#ff0000;stroke-width:1.5353;"
   id="path1481" /><path
   d="M 84.25321 104.3808 C 86.8432 104.3808 88.30303 115.7258 87.11899 129.4014 C 85.87303 143.9579 79.38207 153.4273 76.7921 153.4273 "
   transform="matrix(1.628249,-1.965084e-2,1.965084e-2,1.628249,-7.642605,2.899061)"
   style="font-size:12;fill:none;fill-rule:evenodd;stroke:#ffbab8;stroke-width:1.5353;"
   id="path1337" /><path
   d="M 142.0129 251.487 C 137.7957 251.5379 128.2452 235.6916 126.3394 212.0104 C 124.5109 189.7328 127.3765 171.2522 131.5937 171.2014 "
   style="font-size:12;fill:none;fill-rule:evenodd;stroke:#ff0000;stroke-width:2.500032;"
   id="path1338" /><path
   d="M 129.8237 104.4169 C 125.6063 104.4442 123.1094 85.9861 124.8931 63.70516 C 126.7684 39.98919 137.2378 24.50136 141.4552 24.47403 "
   style="font-size:12;fill:none;fill-rule:evenodd;stroke:#ffbab8;stroke-width:2.500033;"
   id="path1340" /><path
   d="M 119.3724 24.37934 C 123.5898 24.35201 133.0517 40.25148 134.8252 63.94301 C 136.5291 86.23049 133.5603 104.6948 129.3429 104.7221 "
   style="font-size:12;fill:none;fill-rule:evenodd;stroke:#ff0000;stroke-width:2.500034;"
   id="path1341" /><path
   d="M 84.25321 104.3808 C 86.8432 104.3808 88.30303 115.7258 87.11899 129.4014 C 85.87303 143.9579 79.38207 153.4273 76.7921 153.4273 "
   transform="matrix(-1.595283,0.326568,-0.326568,-1.595283,293.1137,244.9346)"
   style="font-size:12;fill:none;fill-rule:evenodd;stroke:#ffbab8;stroke-width:1.5353;"
   id="path1484" /><path
   d="M 90.0563 153.7589 C 87.46629 153.7589 81.71906 143.9574 80.72424 129.4014 C 79.76655 115.7079 81.6632 104.3808 84.25321 104.3808 "
   transform="matrix(-1.595283,0.326568,-0.326568,-1.595283,293.1137,244.9346)"
   style="font-size:12;fill:none;fill-rule:evenodd;stroke:#ff0000;stroke-width:1.5353;"
   id="path1485" /><path
   d="M 84.25321 104.3808 C 86.8432 104.3808 88.30303 115.7258 87.11899 129.4014 C 85.87303 143.9579 79.38207 153.4273 76.7921 153.4273 "
   transform="matrix(1.597083,-0.317649,0.317649,1.597083,-29.56387,30.50686)"
   style="font-size:12;fill:none;fill-rule:evenodd;stroke:#ffbab8;stroke-width:1.5353;"
   id="path1487" /><path
   d="M 90.0563 153.7589 C 87.46629 153.7589 81.71906 143.9574 80.72424 129.4014 C 79.76655 115.7079 81.6632 104.3808 84.25321 104.3808 "
   transform="matrix(1.597083,-0.317649,0.317649,1.597083,-29.56387,30.50686)"
   style="font-size:12;fill:none;fill-rule:evenodd;stroke:#ff0000;stroke-width:1.5353;"
   id="path1488" /><path
   d="M 84.25321 104.3808 C 86.8432 104.3808 88.30303 115.7258 87.11899 129.4014 C 85.87303 143.9579 79.38207 153.4273 76.7921 153.4273 "
   transform="matrix(-1.511693,0.605279,-0.605279,-1.511693,309.524,214.4093)"
   style="font-size:12;fill:none;fill-rule:evenodd;stroke:#ffbab8;stroke-width:1.5353;"
   id="path1491" /><path
   d="M 90.0563 153.7589 C 87.46629 153.7589 81.71906 143.9574 80.72424 129.4014 C 79.76655 115.7079 81.6632 104.3808 84.25321 104.3808 "
   transform="matrix(-1.511693,0.605279,-0.605279,-1.511693,309.524,214.4093)"
   style="font-size:12;fill:none;fill-rule:evenodd;stroke:#ff0000;stroke-width:1.5353;"
   id="path1492" /><path
   d="M 84.25321 104.3808 C 86.8432 104.3808 88.30303 115.7258 87.11899 129.4014 C 85.87303 143.9579 79.38207 153.4273 76.7921 153.4273 "
   transform="matrix(1.515052,-0.596823,0.596823,1.515052,-46.16544,60.83399)"
   style="font-size:12;fill:none;fill-rule:evenodd;stroke:#ffbab8;stroke-width:1.5353;"
   id="path1494" /><path
   d="M 90.0563 153.7589 C 87.46629 153.7589 81.71906 143.9574 80.72424 129.4014 C 79.76655 115.7079 81.6632 104.3808 84.25321 104.3808 "
   transform="matrix(1.515052,-0.596823,0.596823,1.515052,-46.16544,60.83399)"
   style="font-size:12;fill:none;fill-rule:evenodd;stroke:#ff0000;stroke-width:1.5353;"
   id="path1495" /><path
   d="M 84.25321 104.3808 C 86.8432 104.3808 88.30303 115.7258 87.11899 129.4014 C 85.87303 143.9579 79.38207 153.4273 76.7921 153.4273 "
   transform="matrix(-1.375388,0.871711,-0.871711,-1.375388,320.4581,180.4843)"
   style="font-size:12;fill:none;fill-rule:evenodd;stroke:#ffbab8;stroke-width:1.5353;"
   id="path1498" /><path
   d="M 90.0563 153.7589 C 87.46629 153.7589 81.71906 143.9574 80.72424 129.4014 C 79.76655 115.7079 81.6632 104.3808 84.25321 104.3808 "
   transform="matrix(-1.375388,0.871711,-0.871711,-1.375388,320.4581,180.4843)"
   style="font-size:12;fill:none;fill-rule:evenodd;stroke:#ff0000;stroke-width:1.5353;"
   id="path1499" /><path
   d="M 84.25321 104.3808 C 86.8432 104.3808 88.30303 115.7258 87.11899 129.4014 C 85.87303 143.9579 79.38207 153.4273 76.7921 153.4273 "
   transform="matrix(1.380238,-0.864013,0.864013,1.380238,-57.32961,94.59785)"
   style="font-size:12;fill:none;fill-rule:evenodd;stroke:#ffbab8;stroke-width:1.5353;"
   id="path1501" /><path
   d="M 90.0563 153.7589 C 87.46629 153.7589 81.71906 143.9574 80.72424 129.4014 C 79.76655 115.7079 81.6632 104.3808 84.25321 104.3808 "
   transform="matrix(1.380238,-0.864013,0.864013,1.380238,-57.32961,94.59785)"
   style="font-size:12;fill:none;fill-rule:evenodd;stroke:#ff0000;stroke-width:1.5353;"
   id="path1502" /><path
   d="M 84.25321 104.3808 C 86.8432 104.3808 88.30303 115.7258 87.11899 129.4014 C 85.87303 143.9579 79.38207 153.4273 76.7921 153.4273 "
   transform="matrix(-1.195325,1.105792,-1.105792,-1.195325,324.9804,145.6052)"
   style="font-size:12;fill:none;fill-rule:evenodd;stroke:#ffbab8;stroke-width:1.5353;"
   id="path1505" /><path
   d="M 90.0563 153.7589 C 87.46629 153.7589 81.71906 143.9574 80.72424 129.4014 C 79.76655 115.7079 81.6632 104.3808 84.25321 104.3808 "
   transform="matrix(-1.195325,1.105792,-1.105792,-1.195325,324.9804,145.6052)"
   style="font-size:12;fill:none;fill-rule:evenodd;stroke:#ff0000;stroke-width:1.5353;"
   id="path1506" /><path
   d="M 84.25321 104.3808 C 86.8432 104.3808 88.30303 115.7258 87.11899 129.4014 C 85.87303 143.9579 79.38207 153.4273 76.7921 153.4273 "
   transform="matrix(1.201485,-1.099096,1.099096,1.201485,-62.10687,129.3654)"
   style="font-size:12;fill:none;fill-rule:evenodd;stroke:#ffbab8;stroke-width:1.5353;"
   id="path1508" /><path
   d="M 135.1064 131.3527 C 133.1953 133.1008 122.3391 129.748 111.7802 119.6794 C 101.8309 110.2221 95.58494 100.5843 97.49594 98.83613 "
   transform="matrix(1.628368,0,0,1.628368,-5.99271,1.233382)"
   style="font-size:12;fill:none;fill-rule:evenodd;stroke:#ff0000;stroke-width:1.5353;"
   id="path1509" /><path
   d="M 84.25321 104.3808 C 86.8432 104.3808 88.30303 115.7258 87.11899 129.4014 C 85.87303 143.9579 79.38207 153.4273 76.7921 153.4273 "
   transform="matrix(-0.977859,1.302063,-1.302063,-0.977859,323.1654,110.7697)"
   style="font-size:12;fill:none;fill-rule:evenodd;stroke:#ffbab8;stroke-width:1.5353;"
   id="path1512" /><path
   d="M 90.0563 153.7589 C 87.46629 153.7589 81.71906 143.9574 80.72424 129.4014 C 79.76655 115.7079 81.6632 104.3808 84.25321 104.3808 "
   transform="matrix(-0.977859,1.302063,-1.302063,-0.977859,323.1654,110.7697)"
   style="font-size:12;fill:none;fill-rule:evenodd;stroke:#ff0000;stroke-width:1.5353;"
   id="path1513" /><path
   d="M 84.25321 104.3808 C 86.8432 104.3808 88.30303 115.7258 87.11899 129.4014 C 85.87303 143.9579 79.38207 153.4273 76.7921 153.4273 "
   transform="matrix(0.98512,-1.296578,1.296578,0.98512,-60.56762,164.1465)"
   style="font-size:12;fill:none;fill-rule:evenodd;stroke:#ffbab8;stroke-width:1.5353;"
   id="path1515" /><path
   d="M 84.25321 104.3808 C 86.8432 104.3808 88.30303 115.7258 87.11899 129.4014 C 85.87303 143.9579 79.38207 153.4273 76.7921 153.4273 "
   transform="matrix(-0.715757,1.462623,-1.462623,-0.715757,314.5867,75.18478)"
   style="font-size:12;fill:none;fill-rule:evenodd;stroke:#ffbab8;stroke-width:1.5353;"
   id="path1519" /><path
   d="M 90.0563 153.7589 C 87.46629 153.7589 81.71906 143.9574 80.72424 129.4014 C 79.76655 115.7079 81.6632 104.3808 84.25321 104.3808 "
   transform="matrix(-0.715757,1.462623,-1.462623,-0.715757,314.5867,75.18478)"
   style="font-size:12;fill:none;fill-rule:evenodd;stroke:#ff0000;stroke-width:1.5353;"
   id="path1520" /><path
   d="M 84.25321 104.3808 C 86.8432 104.3808 88.30303 115.7258 87.11899 129.4014 C 85.87303 143.9579 79.38207 153.4273 76.7921 153.4273 "
   transform="matrix(0.72392,-1.458601,1.458601,0.72392,-52.27951,199.7209)"
   style="font-size:12;fill:none;fill-rule:evenodd;stroke:#ffbab8;stroke-width:1.5353;"
   id="path1522" /><path
   d="M 84.25321 104.3808 C 86.8432 104.3808 88.30303 115.7258 87.11899 129.4014 C 85.87303 143.9579 79.38207 153.4273 76.7921 153.4273 "
   transform="matrix(-0.426517,1.571517,-1.571517,-0.426517,299.3721,41.67287)"
   style="font-size:12;fill:none;fill-rule:evenodd;stroke:#ffbab8;stroke-width:1.5353;"
   id="path1526" /><path
   d="M 90.0563 153.7589 C 87.46629 153.7589 81.71906 143.9574 80.72424 129.4014 C 79.76655 115.7079 81.6632 104.3808 84.25321 104.3808 "
   transform="matrix(-0.426517,1.571517,-1.571517,-0.426517,299.3721,41.67287)"
   style="font-size:12;fill:none;fill-rule:evenodd;stroke:#ff0000;stroke-width:1.5353;"
   id="path1527" /><path
   d="M 84.25321 104.3808 C 86.8432 104.3808 88.30303 115.7258 87.11899 129.4014 C 85.87303 143.9579 79.38207 153.4273 76.7921 153.4273 "
   transform="matrix(0.43529,-1.56911,1.56911,0.43529,-37.3567,233.2825)"
   style="font-size:12;fill:none;fill-rule:evenodd;stroke:#ffbab8;stroke-width:1.5353;"
   id="path1529" /><path
   d="M 90.0563 153.7589 C 87.46629 153.7589 81.71906 143.9574 80.72424 129.4014 C 79.76655 115.7079 81.6632 104.3808 84.25321 104.3808 "
   transform="matrix(-0.132799,1.622942,-1.622942,-0.132799,278.9443,12.62849)"
   style="font-size:12;fill:none;fill-rule:evenodd;stroke:#ff0000;stroke-width:1.5353;"
   id="path1534" /><path
   d="M 114.3457 111.625 C 104.6582 104.8125 98.53324 97.9375 99.90824 96.125 "
   transform="matrix(1.628368,0,0,1.628368,-5.99271,1.233382)"
   style="font-size:12;fill:none;fill-rule:evenodd;stroke:#ff0000;stroke-width:1.5353;"
   id="path1686" /><path
   d="M 142.7207 121.375 C 141.7207 122.6875 136.6582 122.625 129.7832 120 "
   transform="matrix(1.628368,0,0,1.628368,-5.99271,1.233382)"
   style="font-size:12;fill:none;fill-rule:evenodd;stroke:#ff0000;stroke-width:1.5353;"
   id="path1694" /><path
   d="M 110.8457 101.125 C 104.6582 97.5625 101.1582 94.31251 101.8457 92.8125 "
   transform="matrix(1.628368,0,0,1.628368,-5.99271,1.233382)"
   style="font-size:12;fill:none;fill-rule:evenodd;stroke:#ff0000;stroke-width:1.5353;"
   id="path1696" /><path
   d="M 148.6582 109.5625 C 148.0332 110.875 144.2207 111.6875 138.4707 111.0625 "
   transform="matrix(1.628368,0,0,1.628368,-5.99271,1.233382)"
   style="font-size:12;fill:none;fill-rule:evenodd;stroke:#ff0000;stroke-width:1.5353;"
   id="path1697" /><path
   d="M 110.0957 94.4375 C 105.4707 92.43751 102.7832 90.5 103.1582 89.25 "
   transform="matrix(1.628368,0,0,1.628368,-5.99271,1.233382)"
   style="font-size:12;fill:none;fill-rule:evenodd;stroke:#ff0000;stroke-width:1.5353;"
   id="path1699" /><path
   d="M 152.2832 96.8125 C 151.9082 98.25 148.0957 99.875 141.9082 100.25 "
   transform="matrix(1.628368,0,0,1.628368,-5.99271,1.233382)"
   style="font-size:12;fill:none;fill-rule:evenodd;stroke:#ff0000;stroke-width:1.5353;"
   id="path1700" /><path
   d="M 110.1582 89 C 106.0332 88 103.6582 86.75 103.7832 85.56251 "
   transform="matrix(1.628368,0,0,1.628368,-5.99271,1.233382)"
   style="font-size:12;fill:none;fill-rule:evenodd;stroke:#ff0000;stroke-width:1.5353;"
   id="path1701" /><path
   d="M 153.4707 84.0625 C 153.3457 85.6875 149.4082 88.125 142.6582 89.62501 "
   transform="matrix(1.628368,0,0,1.628368,-5.99271,1.233382)"
   style="font-size:12;fill:none;fill-rule:evenodd;stroke:#ff0000;stroke-width:1.5353;"
   id="path1702" /><path
   d="M 152.2207 70.8125 C 152.4082 72.5625 148.2832 76.18751 140.9082 79.0625 "
   transform="matrix(1.628368,0,0,1.628368,-5.99271,1.233382)"
   style="font-size:12;fill:none;fill-rule:evenodd;stroke:#ff0000;stroke-width:1.5353;"
   id="path1709" /><path
   d="M 110.7207 83.9375 C 106.4707 83.68752 103.8457 82.875 103.7207 81.6875 "
   transform="matrix(1.628368,0,0,1.628368,-5.99271,1.233382)"
   style="font-size:12;fill:none;fill-rule:evenodd;stroke:#ff0000;stroke-width:1.5353;"
   id="path1710" /><path
   d="M 148.7207 58.8125 C 149.2832 60.6875 145.0332 65.8125 137.0957 70.375 "
   transform="matrix(1.628368,0,0,1.628368,-5.99271,1.233382)"
   style="font-size:12;fill:none;fill-rule:evenodd;stroke:#ff0000;stroke-width:1.5353;"
   id="path1714" /><path
   d="M 111.8457 78.875 C 106.7207 79.6875 103.3457 79.5 102.9707 78.1875 "
   transform="matrix(1.628368,0,0,1.628368,-5.99271,1.233382)"
   style="font-size:12;fill:none;fill-rule:evenodd;stroke:#ff0000;stroke-width:1.5353;"
   id="path1716" /><path
   d="M 114.4082 72.1875 C 107.4082 75.3125 102.3457 76.3125 101.5332 74.75 "
   transform="matrix(1.628368,0,0,1.628368,-5.99271,1.233382)"
   style="font-size:12;fill:none;fill-rule:evenodd;stroke:#ff0000;stroke-width:1.5353;"
   id="path1718" /><path
   d="M 143.0332 47.3125 C 144.0332 49.3125 139.4082 56.9375 129.4707 63.8125 "
   transform="matrix(1.628368,0,0,1.628368,-5.99271,1.233382)"
   style="font-size:12;fill:none;fill-rule:evenodd;stroke:#ff0000;stroke-width:1.5353;"
   id="path1720" /><path
   d="M 84.23112 84.5736 L 125.8136 84.5736 "
   transform="matrix(1.628368,0,0,1.628368,-5.99271,1.233382)"
   style="font-size:12;fill:none;fill-rule:evenodd;stroke:#000000;stroke-width:1.5353;stroke-linecap:round;"
   id="path1837" /><path
   d="M 146.8883 82.12756 L 154.4331 91.21533 L 155.2047 82.89905 L 146.8883 82.12756 L 146.8883 82.12756 z "
   transform="matrix(1.628368,0,0,1.628368,-5.99271,1.233382)"
   style="font-size:12;fill:#ff0000;fill-rule:evenodd;"
   id="path1852" /><path
   d="M 125.9913 84.5736 L 125.8136 66.09251 "
   transform="matrix(1.628368,0,0,1.628368,-5.99271,1.233382)"
   style="font-size:12;fill:none;fill-rule:evenodd;stroke:#0000ff;stroke-width:1.5353;"
   id="path1838" /><path
   d="M 119.8189 68.31377 L 131.6304 68.31377 L 125.7247 62.40801 L 119.8189 68.31377 L 119.8189 68.31377 z "
   transform="matrix(1.628368,0,0,1.628368,-5.99271,1.233382)"
   style="font-size:12;fill:#0000ff;fill-rule:evenodd;"
   id="path1840" /><path
   d="M 150.6698 143.5991 L 150.6698 146.4267 C 151.7104 144.5416 152.7784 143.5991 153.8736 143.5991 C 154.3714 143.5991 154.7833 143.7524 155.1091 144.0589 C 155.4349 144.3654 155.5978 144.72 155.5978 145.1225 C 155.5978 145.4795 155.4805 145.7815 155.246 146.0285 C 155.0115 146.2756 154.7319 146.3991 154.4073 146.3991 C 154.0917 146.3991 153.7367 146.2404 153.3422 145.9231 C 152.9477 145.6058 152.6553 145.4471 152.4648 145.4471 C 152.3018 145.4471 152.125 145.5387 151.9346 145.7218 C 151.5265 146.0972 151.1049 146.7151 150.6698 147.5755 L 150.6698 153.5671 C 150.6698 154.2648 150.7562 154.7925 150.9292 155.1504 C 151.0473 155.3983 151.2566 155.6024 151.557 155.7627 C 151.8574 155.923 152.2897 156.0031 152.8538 156.0031 L 152.8538 156.5071 L 146.4418 156.5071 L 146.4418 156.0031 C 147.077 156.0031 147.5489 155.9029 147.8575 155.7025 C 148.0841 155.5567 148.2428 155.3242 148.3335 155.0052 C 148.379 154.8503 148.4018 154.4083 148.4018 153.6791 L 148.4018 148.8351 C 148.4018 147.38 148.3722 146.5137 148.3132 146.2363 C 148.2541 145.959 148.145 145.7566 147.9859 145.6291 C 147.8268 145.5016 147.6291 145.4379 147.3929 145.4379 C 147.1108 145.4379 146.7926 145.5063 146.4383 145.6431 L 146.3018 145.1391 L 150.0944 143.5991 L 150.6698 143.5991 z "
   style="font-size:28;font-weight:normal;font-family:Times New Roman;"
   id="path1376" /><path
   d="M 214.4754 140.5008 C 215.7599 140.775 216.7209 141.2135 217.3585 141.8164 C 218.2419 142.657 218.6837 143.6848 218.6837 144.8999 C 218.6837 145.8227 218.3924 146.7067 217.8098 147.5518 C 217.2272 148.3969 216.4283 149.0136 215.4131 149.402 C 214.398 149.7903 212.848 149.9845 210.7632 149.9845 L 202.0237 149.9845 L 202.0237 149.4805 L 202.7158 149.4805 C 203.4849 149.4805 204.0369 149.2348 204.3717 148.7433 C 204.5797 148.4245 204.6837 147.7462 204.6837 146.7085 L 204.6837 134.6965 C 204.6837 133.5494 204.5524 132.8256 204.2899 132.5252 C 203.9373 132.1247 203.4126 131.9245 202.7158 131.9245 L 202.0237 131.9245 L 202.0237 131.4205 L 210.022 131.4205 C 211.5142 131.4205 212.7108 131.5299 213.6117 131.7486 C 214.9767 132.0767 216.0186 132.658 216.7375 133.4923 C 217.4563 134.3266 217.8157 135.2861 217.8157 136.3708 C 217.8157 137.3006 217.5339 138.1325 216.9704 138.8665 C 216.4069 139.6005 215.5752 140.1453 214.4754 140.5008 z M 207.3157 139.7417 C 207.6528 139.8053 208.0377 139.853 208.4702 139.8848 C 208.9028 139.9166 209.3788 139.9325 209.8982 139.9325 C 211.2279 139.9325 212.2276 139.7894 212.8971 139.5033 C 213.5666 139.2172 214.0777 138.779 214.4305 138.1886 C 214.7833 137.5983 214.9597 136.9536 214.9597 136.2544 C 214.9597 135.1735 214.5183 134.2516 213.6356 133.4888 C 212.7528 132.7259 211.4652 132.3445 209.7727 132.3445 C 208.8627 132.3445 208.0437 132.4444 207.3157 132.6442 L 207.3157 139.7417 z M 207.3157 148.6352 C 208.3768 148.8814 209.424 149.0045 210.4574 149.0045 C 212.1131 149.0045 213.3755 148.6331 214.2444 147.8904 C 215.1132 147.1477 215.5477 146.2296 215.5477 145.1361 C 215.5477 144.4163 215.3462 143.7237 214.9433 143.0584 C 214.5403 142.3931 213.8971 141.8692 213.0135 141.4865 C 212.1298 141.1038 211.0368 140.9125 209.7342 140.9125 C 209.1695 140.9125 208.6867 140.9216 208.2858 140.9398 C 207.8849 140.9581 207.5615 140.9899 207.3157 141.0354 L 207.3157 148.6352 z "
   style="font-size:28;font-weight:normal;fill:#0000ff;font-family:Times New Roman;"
   id="path1375" /><path
   d="M 253.8958 140.3084 C 254.2781 140.3084 254.6036 140.4427 254.872 140.7111 C 255.1405 140.9796 255.2748 141.305 255.2748 141.6874 C 255.2748 142.0698 255.1405 142.3976 254.872 142.6707 C 254.6036 142.9438 254.2781 143.0804 253.8958 143.0804 C 253.5134 143.0804 253.1856 142.9438 252.9125 142.6707 C 252.6393 142.3976 252.5028 142.0698 252.5028 141.6874 C 252.5028 141.305 252.637 140.9796 252.9055 140.7111 C 253.174 140.4427 253.5041 140.3084 253.8958 140.3084 z M 255.0228 146.8604 L 255.0228 156.9404 C 255.0228 157.7198 255.0799 158.2385 255.194 158.4966 C 255.3082 158.7547 255.4772 158.9472 255.7009 159.0741 C 255.9246 159.201 256.3332 159.2644 256.9268 159.2644 L 256.9268 159.7684 L 250.8508 159.7684 L 250.8508 159.2644 C 251.4583 159.2644 251.8663 159.2055 252.0749 159.0877 C 252.2834 158.9698 252.4489 158.775 252.5712 158.5032 C 252.6936 158.2313 252.7548 157.7104 252.7548 156.9404 L 252.7548 152.0964 C 252.7548 150.7472 252.7138 149.8733 252.6318 149.4749 C 252.5682 149.185 252.4683 148.9832 252.3319 148.8696 C 252.1956 148.756 252.0093 148.6992 251.773 148.6992 C 251.5184 148.6992 251.2092 148.7676 250.8455 148.9044 L 250.6548 148.4004 L 254.4221 146.8604 L 255.0228 146.8604 z "
   style="font-size:28;font-weight:normal;fill:#ff0000;font-family:Times New Roman;"
   id="path1374" /></svg>
